<?xml version="1.0" standalone="no"?>
<!DOCTYPE svg PUBLIC "-//W3C//DTD SVG 20010904//EN"
 "http://www.w3.org/TR/2001/REC-SVG-20010904/DTD/svg10.dtd">
<svg version="1.0" xmlns="http://www.w3.org/2000/svg"
 width="1600.000000pt" height="1374.000000pt" viewBox="0 0 1600.000000 1374.000000"
 preserveAspectRatio="xMidYMid meet">
<metadata>
Created by potrace 1.16, written by Peter Selinger 2001-2019
</metadata>
<g transform="translate(0.000000,1374.000000) scale(0.100000,-0.100000)"
fill="#000000" stroke="none">
<path d="M8741 13389 c-24 -5 -52 -16 -62 -25 -10 -9 -22 -13 -27 -10 -5 3
-16 -1 -23 -10 -10 -13 -10 -17 1 -24 8 -5 22 -5 32 1 13 7 20 5 27 -10 9 -16
23 -19 78 -20 38 -1 77 -3 89 -4 27 -4 92 -54 99 -77 13 -42 -48 -88 -149
-110 -27 -6 -57 -15 -67 -21 -30 -16 -259 -23 -259 -8 0 34 67 113 137 160 67
46 88 78 42 66 -10 -3 -21 -1 -24 3 -9 15 -76 2 -111 -22 -39 -26 -43 -43 -14
-58 11 -6 20 -17 20 -26 0 -11 -8 -8 -27 11 -15 14 -31 25 -36 25 -13 0 -66
-92 -73 -127 l-6 -34 -62 7 c-97 11 -103 15 -117 81 -16 75 -42 123 -83 151
-36 25 -66 28 -84 10 -10 -10 -15 -10 -21 1 -14 23 -61 4 -108 -43 -34 -34
-43 -50 -43 -77 0 -19 6 -41 13 -50 23 -29 93 -67 168 -89 104 -31 103 -29 96
-130 -10 -141 -14 -186 -22 -209 -6 -19 -4 -22 16 -19 32 4 68 108 76 218 6
78 31 150 52 150 7 0 36 -43 32 -49 -7 -10 29 -21 74 -21 56 0 49 4 199 -120
50 -42 107 -87 126 -100 68 -47 210 -173 210 -186 0 -7 -29 -27 -63 -45 -35
-17 -72 -38 -82 -45 -18 -14 -18 -14 -1 -27 18 -13 18 -14 0 -21 -11 -4 -20
-3 -22 3 -5 14 -39 14 -47 2 -3 -6 -29 -23 -58 -39 -49 -28 -57 -29 -133 -25
-79 5 -81 5 -102 -22 -27 -34 -28 -66 -4 -88 22 -20 43 -22 60 -5 10 10 15 10
22 -2 8 -13 14 -13 42 4 105 60 104 59 152 41 85 -33 107 -84 50 -121 -29 -19
-30 -32 -6 -50 16 -12 16 -13 0 -14 -9 0 -19 4 -23 9 -12 20 -63 22 -103 4
-53 -23 -71 -53 -49 -86 29 -44 78 -58 214 -63 69 -2 130 -7 137 -12 22 -17
143 -51 236 -67 134 -23 140 -24 140 -34 0 -5 -81 -11 -179 -13 l-180 -3 -30
-29 c-38 -36 -39 -59 -5 -93 26 -26 26 -26 155 -21 71 3 129 4 129 1 0 -2 -30
-18 -67 -35 -38 -16 -110 -50 -160 -74 -88 -42 -94 -43 -125 -30 -18 8 -55 19
-83 25 -27 6 -72 20 -100 30 -151 55 -267 80 -294 62 -9 -6 -19 -3 -30 8 -12
12 -51 22 -122 31 -118 15 -142 15 -147 0 -2 -5 -10 -10 -18 -10 -9 0 -13 4
-10 9 20 31 -130 20 -226 -16 -78 -30 -87 -39 -118 -115 -21 -51 -22 -62 -11
-98 17 -56 48 -85 122 -113 63 -24 64 -25 61 -59 -2 -30 4 -41 47 -81 28 -26
57 -47 65 -47 9 0 30 -9 48 -20 34 -21 84 -28 73 -10 -3 6 1 10 10 10 9 0 14
-4 10 -9 -6 -11 84 -21 195 -23 116 -3 234 13 310 40 8 3 20 6 25 7 6 0 17 4
25 7 8 4 31 9 50 12 19 4 58 17 87 30 49 23 53 24 83 8 34 -18 68 -88 50 -106
-4 -4 -6 -14 -3 -22 5 -15 -39 -30 -56 -19 -6 3 -25 -1 -43 -9 -54 -24 -98
-34 -198 -46 -52 -7 -124 -18 -159 -26 -104 -24 -216 -29 -243 -12 -13 8 -50
30 -83 48 -33 18 -77 42 -98 53 -35 20 -38 20 -54 4 -26 -25 -3 -46 31 -28 31
17 46 7 46 -30 0 -22 8 -34 31 -48 l31 -19 -58 -8 c-81 -10 -248 -10 -379 -1
-200 14 -380 28 -410 32 -16 3 -73 9 -125 14 -52 5 -133 17 -180 26 -47 9 -95
18 -107 20 -12 2 -36 6 -55 11 -18 4 -40 8 -48 9 -8 1 -28 7 -43 14 -16 6 -37
11 -48 11 -20 0 -245 75 -304 102 -17 7 -58 33 -92 57 -82 57 -89 84 -39 145
38 47 116 103 181 131 78 33 150 58 190 64 l40 6 -58 19 c-62 20 -66 32 -11
42 24 4 40 2 52 -9 9 -8 22 -13 27 -11 6 3 32 -2 59 -10 50 -15 49 -16 59 30
4 19 -1 22 -42 28 -25 3 -71 4 -101 1 -30 -2 -102 -7 -160 -10 -173 -10 -240
-19 -347 -51 -46 -14 -83 -29 -83 -34 0 -6 -8 -10 -18 -10 -34 0 -69 -63 -40
-72 7 -3 -10 -4 -37 -4 -47 1 -50 -1 -71 -37 -16 -30 -20 -52 -19 -105 2 -37
4 -69 5 -72 1 -3 3 -9 4 -15 5 -33 55 -88 113 -125 74 -48 187 -99 220 -100
12 0 24 -4 27 -9 3 -5 16 -11 28 -14 13 -3 57 -14 98 -25 108 -29 266 -55 292
-49 12 4 28 1 35 -4 7 -6 54 -17 105 -25 51 -8 109 -16 128 -19 44 -7 121 -13
275 -24 116 -7 679 -5 740 4 215 30 305 31 372 3 52 -21 53 -21 67 -3 8 11 12
25 9 32 -4 9 5 13 30 13 20 0 39 5 43 11 3 6 17 9 30 6 14 -2 55 4 92 13 37
10 87 21 112 25 56 8 103 25 113 41 5 10 15 10 37 3 21 -8 40 -7 67 2 110 36
139 113 78 203 l-24 35 64 31 c47 23 65 36 65 51 0 10 -3 19 -7 19 -5 0 -15
13 -25 29 -9 16 -26 35 -38 41 -14 7 -20 8 -16 1 4 -5 -3 -15 -14 -21 -19 -10
-19 -13 -5 -33 8 -12 20 -22 25 -22 19 0 5 -20 -15 -21 -46 -1 -88 -18 -93
-36 -4 -15 -7 -17 -13 -6 -7 10 -9 10 -9 1 0 -7 -4 -13 -10 -13 -5 0 -7 6 -5
13 3 7 -28 27 -80 52 -47 22 -83 44 -82 50 2 5 37 20 77 33 61 19 79 21 107
11 25 -8 42 -7 70 2 l36 12 -24 18 c-13 10 -22 19 -19 22 15 12 160 87 160 82
0 -3 9 -1 21 5 11 7 31 13 43 16 39 7 111 42 131 64 15 16 17 26 9 48 -9 26
-11 27 -89 26 -44 0 -119 -4 -166 -9 -57 -5 -92 -4 -105 3 -17 10 -15 12 21
28 34 14 61 15 185 9 87 -4 155 -3 170 3 34 13 58 57 44 80 -16 24 -95 61
-156 72 -86 16 -91 17 -138 30 -25 7 -53 14 -64 16 -31 6 -32 15 -6 36 64 51
70 58 70 91 0 40 -15 57 -52 57 -35 0 -111 -37 -103 -50 4 -6 1 -10 -5 -10 -7
0 -10 -6 -7 -14 3 -7 -10 -28 -29 -47 -30 -29 -41 -33 -102 -37 -48 -2 -80 1
-106 12 -41 17 -41 30 1 41 54 13 151 64 167 86 37 53 9 130 -58 159 -58 25
-63 36 -24 56 18 9 40 22 48 29 16 13 180 85 194 85 4 0 42 -24 84 -54 162
-113 335 -160 435 -117 50 21 97 72 97 105 0 31 -45 97 -83 122 -18 11 -68 33
-112 47 -96 32 -197 35 -328 10 l-88 -16 -37 35 c-20 19 -71 60 -112 91 -124
93 -171 131 -193 154 -11 12 -37 34 -59 49 -53 37 -50 54 10 52 255 -9 475
102 457 232 -2 14 -4 28 -4 32 -3 19 -78 96 -114 115 -45 24 -114 28 -196 12z
m-636 -142 c18 0 20 -6 21 -56 2 -55 -9 -77 -31 -63 -5 4 -32 14 -60 22 -49
15 -50 17 -50 55 0 33 4 40 25 46 14 4 36 5 50 2 14 -4 34 -6 45 -6z m1252
-687 c29 -6 67 -21 85 -34 29 -19 33 -27 33 -66 l0 -45 -59 -6 c-67 -8 -131
10 -213 57 -57 33 -123 84 -123 95 0 20 188 20 277 -1z m-964 -920 c46 -10 93
-20 104 -24 12 -4 34 -8 49 -11 38 -5 167 -45 177 -55 5 -4 -20 -18 -55 -31
-71 -26 -93 -43 -84 -64 3 -8 -1 -21 -9 -29 -13 -12 -12 -16 1 -27 14 -11 18
-10 29 4 12 16 13 16 18 -2 3 -13 27 -30 63 -46 34 -15 54 -29 48 -34 -17 -17
-178 -59 -264 -70 -47 -6 -126 -16 -175 -22 -76 -9 -104 -9 -175 5 -47 9 -95
21 -107 26 -17 7 -25 5 -32 -8 -6 -9 -11 -12 -11 -7 -1 6 -3 24 -6 40 -11 75
-15 70 56 67 36 -2 115 2 175 8 61 7 124 13 140 14 17 1 37 6 45 11 8 5 26 8
40 7 l25 -2 -25 14 c-14 9 -33 15 -42 16 -10 0 -18 5 -18 11 0 12 -10 11 -150
-11 -75 -11 -210 -12 -210 -1 0 16 64 50 122 65 50 13 65 13 128 0 78 -16 91
-14 66 11 -9 9 -16 22 -16 29 0 15 -71 26 -160 26 -62 -1 -164 -39 -225 -85
-20 -16 -46 -30 -58 -31 -12 -1 -33 -5 -46 -10 -17 -5 -22 -4 -17 4 4 7 15 12
24 12 9 0 -1 13 -26 31 -64 47 -55 92 26 133 65 33 203 57 332 57 84 1 112 4
122 16 10 13 13 13 25 -2 7 -11 44 -24 96 -35z"/>
<path d="M6807 11684 c-9 -19 -23 -34 -32 -34 -8 0 -15 -4 -15 -9 0 -11 51
-21 112 -21 105 0 310 -63 458 -141 8 -4 50 -26 92 -48 84 -45 100 -48 118
-27 10 13 -1 21 -62 52 -40 20 -84 44 -98 53 -78 53 -322 154 -423 176 -9 2
-22 7 -27 10 -11 7 -39 13 -81 19 -22 4 -29 -2 -42 -30z"/>
<path d="M11472 11702 c-46 -2 -68 -8 -83 -23 -18 -18 -46 -18 -34 1 12 19
-144 -6 -280 -44 -127 -35 -152 -44 -132 -45 22 -1 23 -21 0 -21 -9 0 -25 -7
-35 -16 -14 -14 -20 -14 -33 -4 -21 18 -79 6 -126 -25 -21 -14 -48 -25 -59
-25 -11 0 -39 -17 -63 -39 -23 -21 -48 -36 -55 -34 -6 3 -9 9 -6 15 7 11 -33
2 -51 -12 -5 -4 -22 -10 -37 -14 -14 -3 -41 -24 -59 -45 -27 -34 -37 -39 -61
-34 -18 4 -55 -4 -102 -21 -68 -25 -73 -29 -68 -53 3 -18 1 -24 -7 -19 -6 4
-11 13 -11 21 0 16 -25 10 -110 -25 -67 -28 -90 -47 -90 -73 0 -17 -5 -19 -36
-14 -32 5 -57 -4 -177 -64 -77 -38 -153 -79 -169 -91 -16 -11 -50 -27 -76 -34
-26 -8 -62 -25 -82 -39 -19 -13 -54 -31 -77 -40 -24 -10 -43 -21 -43 -26 0 -5
-4 -9 -9 -9 -8 0 -102 -58 -128 -80 -7 -6 -15 -10 -19 -10 -4 0 -18 -9 -30
-21 l-22 -21 -94 26 c-176 50 -203 59 -243 77 -47 20 -377 132 -379 127 0 -2
-6 -13 -13 -25 -11 -20 -10 -22 30 -28 23 -4 62 -16 86 -26 24 -10 54 -19 67
-19 12 0 25 -4 29 -10 3 -5 38 -19 78 -31 40 -12 101 -32 137 -44 36 -13 91
-31 122 -40 32 -10 66 -24 75 -31 17 -11 15 -13 -12 -24 -16 -6 -43 -18 -60
-27 -16 -8 -52 -22 -80 -30 -27 -8 -76 -26 -108 -39 -55 -23 -65 -24 -235 -20
-97 2 -190 8 -207 14 -34 12 -312 26 -302 15 4 -3 2 -12 -4 -19 -8 -10 -8 -15
2 -18 18 -5 347 -30 419 -32 117 -2 140 -4 140 -12 0 -12 -90 -47 -195 -77
-49 -14 -108 -33 -130 -41 -36 -14 -174 -47 -255 -61 -19 -3 -60 -14 -90 -23
-30 -10 -100 -23 -155 -30 -55 -6 -111 -15 -125 -20 -14 -5 -41 -11 -60 -14
-19 -2 -37 -5 -40 -6 -3 -2 -23 -4 -45 -6 -22 -1 -56 -5 -75 -8 -44 -7 -533
-26 -660 -26 -52 1 -135 5 -185 10 -49 4 -155 9 -233 9 -79 1 -147 3 -151 6
-4 2 -91 7 -192 9 -125 4 -200 10 -233 21 -64 19 -83 19 -89 -2 -4 -16 -5 -16
-6 -1 -1 17 -11 20 -195 54 -94 17 -302 77 -346 99 -14 7 -43 15 -66 17 -23 3
-46 8 -52 12 -6 4 -27 7 -47 8 -20 1 -38 5 -41 10 -3 4 -13 8 -22 8 -10 0 -33
9 -53 19 -20 11 -54 23 -75 26 -62 11 -119 33 -279 110 -82 40 -161 76 -175
80 -30 9 -97 50 -127 78 -13 11 -29 17 -38 13 -9 -3 -14 -2 -11 3 3 4 -17 36
-44 70 -66 83 -98 138 -114 201 -21 82 -9 112 67 154 106 59 157 69 295 57
118 -11 242 -45 250 -69 3 -11 -48 -47 -110 -76 -20 -10 -42 -24 -48 -30 -14
-17 -28 -98 -21 -118 10 -27 114 -96 157 -103 21 -4 66 -17 99 -30 103 -40
153 -50 181 -35 13 8 27 10 31 7 3 -4 12 -2 20 5 23 18 26 1 4 -21 l-21 -21
23 -5 c12 -2 36 -6 54 -9 17 -2 36 -7 42 -10 6 -4 39 -9 75 -12 59 -5 65 -4
71 15 8 27 41 46 51 29 4 -6 -3 -19 -16 -30 -28 -23 -22 -30 32 -34 24 -2 61
-6 83 -9 22 -3 103 -8 180 -11 77 -2 187 -11 245 -19 58 -8 188 -19 290 -25
102 -6 214 -15 250 -20 60 -10 482 -39 558 -40 20 0 31 4 27 10 -6 9 14 14 42
11 7 -1 23 3 35 9 22 11 22 10 4 -4 -11 -9 -18 -18 -15 -20 6 -6 286 -17 793
-32 248 -7 248 -7 238 13 -10 17 -25 22 -94 27 -46 3 -90 5 -98 4 -8 -1 -44 1
-80 5 -36 4 -123 9 -195 13 -71 3 -143 7 -160 9 -16 2 -129 6 -252 10 -123 3
-229 8 -236 11 -8 3 -25 0 -39 -5 -14 -5 -29 -7 -33 -3 -3 4 -70 12 -148 19
-297 24 -393 32 -430 39 -20 3 -47 7 -60 8 -12 2 -51 7 -87 11 -36 5 -69 9
-75 10 -5 1 -21 4 -35 8 -14 4 -72 11 -130 17 -192 19 -493 54 -560 67 -14 2
-59 8 -100 12 -75 9 -100 3 -100 -24 0 -13 -42 -35 -66 -35 -23 0 -12 22 20
40 38 21 35 33 -11 43 -21 4 -47 11 -58 16 -11 6 -36 13 -55 17 -19 4 -37 8
-40 9 -3 1 -21 4 -40 9 -167 35 -209 49 -251 86 l-43 37 28 26 c16 15 64 45
107 67 74 38 81 40 101 25 13 -8 28 -15 35 -15 7 0 32 -9 56 -19 45 -21 112
-43 137 -46 8 -1 22 -5 30 -8 21 -8 115 -25 180 -32 30 -3 88 -11 127 -17 56
-8 79 -8 103 2 16 7 30 14 30 17 0 10 -45 63 -54 63 -5 0 -18 8 -29 18 -10 9
-33 18 -51 19 -127 8 -411 65 -433 86 -7 7 79 54 128 70 78 26 201 56 259 61
30 4 67 8 81 10 14 2 50 -1 80 -6 35 -6 55 -6 57 0 5 15 44 2 69 -22 11 -12
29 -27 38 -35 11 -9 14 -21 10 -35 -3 -11 -7 -27 -7 -33 -1 -7 -6 -13 -12 -13
-6 0 -27 -8 -46 -19 -19 -10 -53 -24 -75 -31 -42 -13 -68 -30 -47 -30 7 0 35
-22 64 -50 28 -27 60 -50 70 -50 29 0 142 57 169 86 47 50 27 206 -33 243 -12
7 -51 22 -87 32 -97 28 -347 24 -452 -7 -9 -2 -16 -12 -15 -22 0 -10 -5 -16
-14 -13 -59 15 -170 -7 -192 -38 -8 -10 -25 -17 -43 -17 -16 1 -30 -4 -30 -11
0 -6 -4 -15 -9 -20 -5 -5 -6 -3 -2 5 9 16 10 16 -58 -8 -48 -16 -65 -18 -100
-9 -79 20 -121 27 -129 22 -4 -2 -13 -1 -20 4 -7 6 -39 15 -72 22 -33 7 -72
17 -86 21 -30 9 -146 4 -209 -9 -96 -20 -154 -49 -202 -102 -43 -47 -47 -56
-53 -119 -6 -61 -4 -94 11 -174 5 -30 67 -116 114 -161 23 -22 59 -58 81 -80
21 -22 39 -36 39 -31 0 6 15 -4 33 -21 61 -58 107 -84 387 -224 80 -40 191
-83 280 -108 41 -12 105 -31 142 -42 82 -24 126 -30 133 -18 4 5 14 9 23 8 11
0 12 -3 5 -6 -27 -10 -11 -22 45 -33 31 -6 84 -18 117 -25 33 -8 74 -16 90
-20 17 -3 38 -8 48 -11 17 -5 18 -1 12 38 -3 24 -1 50 5 58 9 13 13 11 31 -9
13 -16 18 -33 14 -48 -4 -18 -1 -23 14 -23 11 0 23 -4 26 -10 3 -5 15 -10 26
-10 16 0 19 4 14 21 -9 27 3 91 16 83 5 -3 7 -14 4 -24 -3 -10 -1 -21 5 -25 6
-4 8 -15 5 -26 -5 -13 -2 -19 10 -19 9 0 14 -4 11 -9 -9 -13 147 -39 279 -46
66 -4 138 -11 160 -17 132 -34 707 -56 855 -32 47 7 121 18 164 24 44 6 82 13
86 15 3 2 44 6 90 10 47 4 110 11 140 15 30 5 73 12 95 15 22 4 93 20 157 36
64 15 147 33 185 39 84 12 155 30 168 41 5 5 23 9 41 9 18 0 72 14 121 30 48
17 137 44 196 60 131 37 348 110 402 136 60 28 251 27 360 -3 79 -22 236 -50
305 -55 19 -1 44 -8 56 -15 11 -7 31 -13 45 -12 13 0 56 -7 94 -15 164 -37
177 -38 186 -24 5 7 3 15 -4 19 -26 13 -256 64 -337 74 -14 2 -54 11 -90 19
-137 33 -156 37 -200 42 -41 4 -122 18 -177 30 -32 6 -29 17 10 31 138 49 167
60 172 65 3 2 31 1 62 -4 32 -4 92 -13 133 -19 128 -18 155 -17 158 7 3 19 -3
22 -55 28 -108 13 -120 15 -146 25 -15 6 -27 14 -27 18 0 26 234 176 410 264
52 26 112 59 133 73 21 14 44 26 51 26 8 0 19 7 26 15 11 13 10 14 -3 10 -18
-7 -29 6 -18 23 5 8 17 9 44 1 32 -9 41 -7 64 10 14 12 34 21 45 21 10 0 35 7
56 15 29 13 33 18 22 25 -13 8 -13 11 0 23 20 19 67 30 75 17 3 -5 -3 -10 -14
-10 -12 0 -21 -5 -21 -11 0 -18 53 -1 199 63 478 210 508 221 695 238 122 12
183 2 233 -36 27 -20 33 -32 33 -62 0 -33 -8 -45 -75 -109 -42 -41 -101 -86
-134 -103 -33 -16 -62 -34 -65 -39 -4 -5 -19 -12 -35 -16 -16 -3 -40 -16 -54
-28 -27 -25 -56 -40 -199 -102 l-37 -16 38 -34 c21 -19 44 -35 50 -35 6 0 11
-7 11 -15 0 -21 46 -19 68 3 10 9 32 18 50 18 39 2 127 44 127 61 0 18 15 29
23 16 10 -16 191 76 313 159 178 122 271 192 291 219 12 15 26 25 33 23 16 -7
72 61 86 104 23 69 -31 174 -96 187 -35 7 -167 11 -233 7z"/>
<path d="M7574 11391 c5 -7 -2 -11 -16 -11 -22 0 -22 -1 7 -25 17 -13 34 -24
39 -25 4 0 22 -11 40 -25 36 -30 149 -104 187 -124 22 -11 31 -11 54 2 l28 14
-69 39 c-38 21 -102 60 -143 86 -87 58 -136 84 -127 69z"/>
<path d="M2442 11064 c-40 -7 -81 -16 -90 -20 -9 -4 -30 -8 -46 -8 -24 -1 -30
-6 -33 -30 -4 -29 18 -55 48 -56 8 0 26 -10 38 -22 13 -11 53 -29 90 -39 64
-16 65 -17 38 -28 -35 -14 -54 -14 -62 -1 -11 18 -35 11 -35 -10 0 -14 -7 -20
-21 -20 -12 0 -27 -7 -34 -17 -11 -15 -14 -15 -35 0 -29 20 -60 66 -60 89 0
10 -9 23 -20 30 -26 16 -27 41 -1 33 15 -4 20 1 25 26 3 18 5 34 3 35 -5 6
-122 -24 -182 -46 -79 -29 -245 -140 -278 -187 -26 -36 -26 -37 -7 -50 11 -8
20 -19 20 -24 0 -6 -7 -3 -16 5 -8 9 -22 16 -29 16 -13 0 -55 -50 -55 -66 0
-4 -11 -19 -24 -33 -14 -16 -26 -44 -30 -73 -7 -43 -5 -48 13 -48 33 0 51 -11
51 -32 0 -14 -5 -18 -16 -14 -58 22 -62 20 -69 -28 -14 -89 9 -189 52 -232 18
-18 19 -21 22 -49 1 -9 7 -12 18 -8 11 4 14 3 9 -5 -12 -19 162 -181 209 -195
11 -3 58 -20 105 -38 47 -17 155 -49 240 -71 85 -21 186 -47 224 -58 38 -11
71 -18 74 -16 2 3 -5 20 -17 39 -19 30 -29 36 -108 55 -49 11 -104 24 -123 28
-19 3 -45 13 -58 22 -23 15 -23 14 -16 -11 3 -15 2 -27 -3 -27 -14 0 -33 22
-33 40 0 8 -26 30 -58 48 -67 39 -97 65 -133 112 -86 115 -124 300 -80 395 38
85 90 152 145 190 31 21 56 41 56 45 0 4 6 7 14 7 8 0 31 8 52 19 22 10 62 24
89 30 28 7 68 17 90 22 22 6 66 16 97 22 32 6 67 19 79 29 19 15 20 20 8 39
-11 18 -11 24 5 41 11 12 23 21 28 21 12 0 10 -54 -2 -66 -14 -14 -2 -44 16
-44 8 0 14 8 14 17 0 16 1 16 13 0 10 -14 18 -15 47 -7 22 6 38 6 44 0 6 -6
21 -10 36 -10 49 -1 356 -77 396 -99 11 -5 46 -17 79 -27 98 -27 252 -89 399
-161 39 -18 81 -35 95 -38 13 -2 29 -9 35 -15 5 -5 22 -10 37 -10 15 0 31 -5
34 -11 9 -13 124 -67 243 -113 101 -39 137 -54 222 -94 84 -39 149 -63 215
-78 33 -8 67 -17 75 -21 8 -3 20 -7 25 -8 6 -2 38 -10 71 -19 34 -9 73 -16 86
-16 13 0 28 -4 34 -8 21 -19 110 -33 138 -22 35 13 36 13 36 -5 0 -8 5 -15 12
-15 6 0 8 3 5 7 -11 11 37 31 50 21 15 -12 59 10 47 22 -5 5 -47 16 -94 24
-74 13 -86 13 -96 1 -15 -21 -23 -19 -33 8 -7 18 -28 28 -112 51 -148 40 -167
46 -229 72 -30 12 -94 36 -143 52 -48 16 -104 41 -125 55 -44 30 -223 137
-229 137 -2 0 -21 11 -41 25 -20 14 -45 25 -54 25 -10 0 -18 4 -18 9 0 5 -8
11 -17 15 -10 3 -31 14 -48 23 -16 10 -79 45 -138 77 l-108 58 -20 -21 c-11
-11 -24 -21 -28 -21 -17 0 -20 30 -4 38 27 16 -9 46 -77 67 -22 7 -20 3 14
-30 31 -29 36 -39 25 -46 -20 -12 -26 -11 -33 6 -3 8 -12 15 -19 15 -20 0 -45
49 -29 59 8 5 -1 15 -27 29 -43 24 -51 26 -51 13 0 -5 8 -11 18 -14 16 -4 16
-4 -1 -12 -24 -10 -60 21 -38 34 15 10 9 15 -45 34 -21 8 -79 31 -129 52 -73
30 -232 81 -315 100 -16 3 -180 14 -295 19 -33 2 -93 -3 -133 -10z"/>
<path d="M10580 10928 c-19 -5 -46 -18 -61 -29 -15 -10 -34 -19 -41 -19 -26 0
-138 -40 -222 -79 -44 -21 -115 -46 -156 -55 -156 -36 -171 -40 -181 -52 -7
-9 -2 -17 20 -30 17 -10 31 -22 31 -27 0 -13 52 2 73 20 10 10 17 12 17 5 0
-19 35 -14 60 8 25 22 35 26 25 10 -8 -14 38 -13 70 2 14 6 25 15 25 21 0 5 7
7 15 4 15 -7 111 8 160 24 17 6 54 17 83 25 29 8 72 22 95 33 23 10 67 26 97
36 48 16 108 41 119 51 5 5 -59 64 -70 64 -9 0 -83 -40 -142 -77 -37 -23 -37
-23 -25 -2 7 12 21 31 31 41 14 15 24 41 15 37 -2 0 -19 -5 -38 -11z"/>
<path d="M13748 10588 l-23 -6 23 -1 c18 -1 23 -6 20 -23 -4 -28 -39 -35 -62
-13 -9 9 -16 12 -16 6 0 -16 -67 -44 -82 -35 -9 6 -4 10 16 14 16 3 35 15 44
28 14 22 14 22 -24 22 -30 0 -45 -7 -67 -29 -15 -16 -27 -34 -27 -39 0 -5 -10
-17 -22 -25 -20 -14 -21 -18 -8 -26 8 -6 11 -11 5 -11 -5 0 -3 -5 5 -11 13 -9
13 -10 0 -6 -8 2 -23 0 -34 -5 -13 -7 -16 -7 -11 1 4 7 1 19 -6 27 -10 12 -6
20 22 44 24 20 31 32 24 39 -15 15 -82 -5 -98 -30 -6 -10 -18 -19 -25 -19 -7
0 -10 5 -7 10 10 17 -14 11 -33 -7 -10 -10 -26 -19 -36 -21 -10 -2 -30 -15
-45 -29 l-26 -25 28 6 c33 8 36 -8 5 -25 -13 -7 -40 -30 -60 -51 -39 -41 -60
-43 -51 -7 7 26 0 22 -75 -36 -42 -33 -51 -46 -52 -72 0 -21 -8 -38 -25 -51
-13 -11 -22 -22 -19 -24 3 -3 -9 -19 -25 -36 -29 -29 -30 -30 -12 -46 18 -16
21 -15 56 8 30 20 41 23 57 15 11 -6 26 -8 34 -5 8 3 14 1 14 -5 0 -6 -9 -13
-20 -16 -11 -3 -18 -9 -15 -13 2 -4 -8 -13 -23 -19 -25 -12 -25 -13 -8 -23 14
-8 26 -6 48 7 22 13 32 14 43 5 22 -18 29 7 10 37 -21 31 -9 43 47 43 34 0 68
20 68 41 0 5 -7 9 -15 9 -8 0 -15 -4 -15 -10 0 -6 -26 -7 -67 -4 -38 4 -80 6
-95 7 -17 0 -28 5 -28 13 0 8 5 14 11 14 5 0 24 15 40 33 24 26 31 29 39 17 6
-9 5 -17 -3 -22 -8 -5 -8 -8 -1 -8 15 0 41 30 53 63 7 17 18 27 31 27 11 0 28
7 39 16 38 33 143 51 125 22 -4 -6 -1 -8 7 -6 8 3 13 11 11 17 -1 7 2 10 7 7
5 -4 36 7 68 23 32 15 82 40 111 53 30 14 53 29 53 34 0 5 11 8 25 7 13 -1 22
2 19 7 -3 5 7 5 23 1 19 -6 40 -4 60 5 26 11 32 19 32 44 0 20 5 30 15 30 12
0 35 28 35 43 0 6 -85 3 -112 -5z"/>
<path d="M14080 10421 c-5 -11 -10 -25 -10 -31 0 -6 -7 -18 -15 -26 -13 -13
-20 -13 -50 -3 -33 12 -39 10 -137 -39 -57 -29 -114 -52 -128 -53 -14 0 -20
-3 -13 -6 9 -3 10 -9 1 -23 -11 -17 -14 -17 -35 -3 -18 12 -27 13 -35 5 -8 -8
-4 -14 15 -21 15 -6 27 -15 27 -20 0 -12 59 -11 66 0 2 5 11 6 19 2 17 -6 21
12 5 22 -5 3 -10 11 -10 17 0 6 3 9 6 5 4 -3 15 4 25 16 18 22 18 22 19 1 0
-11 8 -28 18 -37 16 -15 21 -15 38 -2 10 8 15 15 11 15 -17 0 16 41 40 51 36
13 41 3 13 -26 -28 -30 -22 -31 25 -7 26 14 31 22 23 30 -7 7 -8 12 -2 12 5 0
2 5 -6 11 -12 8 -10 9 10 7 17 -2 25 -9 24 -21 -2 -23 5 -22 41 8 23 19 26 24
13 25 -22 0 -23 14 -3 34 8 8 15 19 15 24 0 5 7 15 15 22 8 7 12 16 9 21 -9
15 -23 10 -34 -10z"/>
<path d="M10253 10303 c-38 -15 10 -35 117 -48 30 -3 88 -15 129 -26 90 -23
101 -23 101 -4 0 9 6 12 15 9 8 -4 15 -12 15 -18 0 -14 70 -32 158 -41 42 -5
54 -3 58 10 8 21 0 28 -34 31 -15 2 -53 8 -86 13 -32 6 -61 10 -65 9 -3 -1
-26 4 -49 11 -24 7 -68 13 -98 14 -30 1 -54 5 -54 8 0 4 -12 10 -27 13 -16 4
-36 9 -45 12 -12 4 -18 0 -18 -10 0 -10 -9 -16 -21 -16 -15 0 -19 5 -15 15 4
11 -1 15 -18 15 -14 0 -30 2 -38 4 -7 3 -19 2 -25 -1z"/>
<path d="M910 10191 c0 -13 54 -39 95 -47 32 -6 32 -6 22 -40 -6 -19 -14 -34
-18 -34 -13 0 -20 18 -9 25 22 13 9 27 -19 22 -23 -5 -35 -1 -53 18 -13 14
-28 25 -34 25 -7 0 -14 7 -18 15 -4 12 -15 14 -48 9 -24 -3 -52 -9 -63 -14
-11 -5 -42 -11 -69 -13 -31 -3 -55 -11 -62 -22 -7 -9 -17 -14 -22 -11 -8 5
-101 -39 -112 -53 -3 -4 -18 -13 -35 -21 -29 -13 -29 -14 -7 -18 18 -3 23 -9
19 -23 -3 -10 -1 -22 4 -25 6 -3 7 -15 3 -26 -4 -14 -2 -18 5 -14 13 8 91 -23
91 -36 0 -4 9 -3 20 4 11 7 18 19 15 26 -3 8 0 12 7 9 7 -2 37 7 67 19 29 13
60 24 68 24 9 0 13 6 9 15 -4 11 1 15 19 15 13 0 27 4 30 10 4 6 19 5 41 -5
19 -8 67 -17 107 -20 39 -3 91 -8 115 -11 29 -4 42 -3 42 5 0 7 4 10 9 6 6 -3
14 3 20 12 5 10 13 14 17 10 5 -4 3 -16 -3 -27 -10 -15 -9 -19 3 -24 22 -8 36
-7 30 2 -3 4 28 7 67 7 54 -2 72 -6 72 -16 0 -8 -8 -13 -19 -12 -29 2 -6 -12
57 -35 31 -12 57 -17 57 -12 0 6 5 10 10 10 6 0 10 -7 10 -15 0 -9 12 -20 28
-27 15 -6 41 -17 59 -24 17 -8 45 -14 62 -14 17 0 31 -4 31 -10 0 -5 7 -10 15
-10 8 0 15 -4 15 -8 0 -11 86 -52 110 -52 10 0 22 -5 26 -11 4 -7 22 -9 45 -6
27 4 42 1 51 -11 10 -12 10 -16 0 -19 -16 -6 -6 -23 14 -23 8 0 14 9 14 20 0
11 -5 20 -11 20 -6 0 -8 7 -5 16 4 9 1 23 -5 30 -9 11 -6 14 17 14 41 0 75 11
68 21 -3 5 3 9 13 9 21 1 -76 53 -160 86 l-57 23 -27 -25 c-19 -17 -34 -23
-48 -19 -11 3 -28 9 -37 12 -13 4 -18 0 -18 -16 0 -18 -4 -20 -32 -14 -43 8
-47 12 -25 28 13 9 16 21 12 44 -4 24 -2 31 11 31 9 0 18 -8 21 -19 3 -12 11
-17 22 -14 10 2 23 -2 29 -10 12 -14 58 -12 67 4 7 10 -64 59 -85 59 -9 0 -20
4 -26 9 -19 19 -167 92 -178 88 -6 -2 -36 7 -66 21 -68 30 -153 41 -144 17 10
-24 -12 -17 -30 10 -20 31 -42 34 -25 4 16 -31 -4 -48 -31 -24 -14 13 -29 16
-55 12 -38 -6 -65 -1 -65 14 0 4 25 8 56 8 53 -1 74 5 62 17 -3 3 -16 7 -29 8
-13 2 -35 6 -49 9 -49 11 -180 17 -180 8z"/>
<path d="M5146 10097 c4 -11 1 -23 -7 -28 -22 -14 6 -27 71 -34 97 -10 203
-25 270 -36 89 -16 391 -20 409 -6 10 9 16 7 26 -6 9 -13 27 -17 73 -17 58 0
72 8 72 41 0 13 -47 11 -70 -3 -16 -10 -22 -10 -28 -1 -10 16 -86 28 -109 18
-10 -5 -21 -9 -25 -9 -3 -1 -10 -4 -14 -8 -14 -15 -25 -8 -19 12 6 18 2 20
-32 21 -21 1 -51 3 -68 4 -156 16 -177 15 -196 -8 -15 -18 -18 -19 -19 -5 0
33 -46 55 -132 64 -46 4 -90 7 -98 6 -8 -1 -36 2 -63 7 -45 8 -47 7 -41 -12z"/>
<path d="M14115 10061 c-17 -10 -38 -29 -47 -43 -17 -25 -65 -42 -92 -32 -7 3
-18 16 -24 30 -10 19 -9 24 3 24 8 0 15 -7 15 -15 0 -8 4 -15 9 -15 5 0 16 -2
23 -5 9 -4 20 5 28 20 7 14 19 25 26 25 7 0 15 4 19 10 3 5 -12 8 -37 5 -116
-10 -167 -17 -194 -25 l-29 -10 33 5 c20 3 43 -2 61 -13 43 -26 28 -42 -37
-41 -50 0 -54 2 -32 11 23 10 23 11 5 16 -11 2 -25 8 -30 12 -18 15 -153 -8
-203 -34 -15 -8 -35 -14 -42 -13 -26 3 -100 -14 -100 -23 0 -12 53 -9 69 4 12
9 14 8 9 -5 -4 -11 1 -20 15 -26 33 -15 42 -14 42 5 0 10 9 18 23 20 13 2 26
10 29 18 3 8 11 14 19 14 8 0 14 4 14 10 0 6 10 5 25 -2 28 -12 33 -28 10 -28
-8 0 -15 -4 -15 -10 0 -15 37 -12 43 4 3 7 1 18 -4 23 -6 6 -4 14 6 23 11 9
15 9 15 1 0 -8 8 -10 20 -6 17 5 20 2 18 -21 -2 -14 -9 -29 -18 -32 -16 -6
-30 -22 -30 -34 0 -16 51 -7 57 10 4 9 11 20 17 24 16 10 28 -2 16 -17 -9 -10
0 -13 44 -14 39 0 56 4 60 14 4 10 -1 15 -16 15 -16 0 -19 3 -11 11 15 15 53
2 46 -16 -4 -12 4 -14 36 -12 43 3 55 16 24 28 -15 6 -13 8 8 8 17 1 29 9 37
25 6 14 20 30 32 36 18 10 21 9 18 -6 -2 -11 4 -20 15 -22 20 -4 24 24 5 31
-9 3 -6 11 10 26 12 12 22 24 22 26 0 11 -38 3 -65 -14z"/>
<path d="M14245 10071 c9 -15 -15 -24 -30 -11 -11 9 -17 6 -31 -15 -9 -14 -15
-28 -12 -30 2 -3 29 -9 58 -15 30 -6 64 -20 76 -31 12 -11 50 -27 85 -35 35
-8 75 -17 87 -21 22 -5 23 -4 10 16 -11 18 -11 23 1 31 11 6 12 12 3 22 -9 11
-7 17 8 28 27 19 25 30 -4 30 -14 0 -28 5 -31 11 -10 15 -66 1 -88 -22 -18
-19 -57 -26 -57 -10 0 5 7 12 16 15 8 3 12 11 8 18 -5 8 0 9 14 6 15 -4 22 -2
22 8 0 11 -17 14 -71 14 -41 0 -68 -4 -64 -9z"/>
<path d="M3635 10023 c-16 -1 -88 -7 -160 -13 -302 -25 -424 -41 -471 -61 -34
-15 -43 -23 -33 -30 10 -6 9 -8 -6 -7 -32 3 -76 -32 -73 -56 2 -14 9 -20 21
-18 20 3 22 -9 5 -26 -6 -6 -9 -14 -6 -18 3 -3 14 8 24 24 21 37 73 67 139 81
28 5 73 15 100 21 28 6 74 13 103 15 30 3 58 7 63 10 5 3 130 6 279 6 197 0
270 3 270 11 0 7 6 4 13 -6 8 -11 27 -18 50 -19 20 0 37 -4 37 -8 0 -4 29 -15
65 -24 36 -10 68 -22 71 -27 3 -4 13 -8 22 -8 27 0 76 -44 69 -63 -3 -9 -29
-20 -61 -28 -48 -11 -56 -15 -56 -36 0 -19 5 -23 29 -23 16 0 43 3 60 6 25 5
29 9 20 20 -14 17 -5 18 22 2 18 -11 24 -9 48 18 34 38 32 80 -8 118 -36 35
-157 96 -189 96 -21 0 -24 -2 -12 -10 19 -12 22 -49 4 -46 -7 1 -21 9 -31 17
-69 56 -91 62 -273 74 -30 3 -66 6 -80 8 -14 2 -38 2 -55 0z"/>
<path d="M6104 10012 c-6 -4 -13 -16 -16 -28 -5 -20 0 -21 135 -32 98 -8 144
-8 153 -1 8 7 19 7 31 1 25 -13 146 -14 138 -2 -9 15 5 12 21 -5 16 -15 24
-16 169 -20 44 -1 121 -7 170 -13 50 -7 142 -14 205 -16 63 -3 171 -10 240
-16 184 -17 569 -19 563 -2 -3 6 2 12 11 12 9 0 16 -4 16 -10 0 -20 41 -10 49
13 5 12 7 24 4 27 -2 2 -70 5 -151 6 -260 4 -523 13 -532 19 -4 3 -43 7 -85 9
-61 3 -75 1 -71 -10 3 -7 1 -16 -4 -19 -6 -4 -10 3 -10 13 0 11 -7 23 -16 26
-27 10 -110 6 -122 -6 -8 -8 -12 -8 -12 -1 0 14 -113 22 -515 38 -199 7 -327
15 -345 20 -8 3 -20 1 -26 -3z"/>
<path d="M391 9981 c-25 -35 -26 -40 -4 -56 15 -11 15 -15 4 -29 -10 -12 -17
-13 -26 -6 -9 8 -15 3 -22 -17 -41 -113 -51 -178 -30 -186 10 -4 13 -13 10
-28 -5 -19 -4 -20 14 -10 16 8 28 7 52 -5 17 -9 29 -20 26 -25 -4 -5 -1 -9 5
-9 17 0 23 29 10 45 -10 12 -9 15 3 15 35 0 50 -69 17 -77 -23 -6 -25 -21 -6
-45 15 -20 46 -24 46 -7 0 15 32 -28 48 -64 15 -34 15 -37 2 -37 -5 0 -10 7
-10 15 0 8 -10 20 -22 26 -18 9 -24 8 -34 -6 -14 -19 -34 -12 -34 11 0 9 -7
22 -15 30 -8 9 -15 23 -15 33 0 14 -6 17 -27 14 -21 -4 -24 -2 -13 6 18 12 14
16 -28 24 l-34 7 6 -41 c7 -51 97 -181 163 -235 63 -52 145 -105 152 -98 3 3
-2 11 -12 18 -9 7 -17 22 -17 33 0 11 -10 28 -22 36 -18 13 -20 18 -10 25 10
7 6 11 -16 15 -35 7 -47 38 -23 59 9 7 19 14 24 15 29 6 31 11 13 32 -22 24
-36 48 -66 111 -16 35 -21 63 -21 130 1 116 2 131 11 125 4 -2 20 10 36 27 16
17 25 33 19 35 -69 29 -80 39 -80 73 0 20 -5 35 -12 35 -6 0 -15 3 -19 8 -13
12 -22 8 -43 -22z"/>
<path d="M13235 9915 c17 -13 36 -24 43 -25 13 0 16 -19 4 -35 -4 -6 -20 -11
-35 -12 -16 0 -38 -9 -49 -19 -21 -19 -21 -19 -14 9 6 23 3 27 -16 27 -13 0
-39 -5 -59 -10 -29 -8 -40 -19 -59 -60 -21 -44 -35 -56 -63 -51 -5 1 -6 -3 -2
-9 13 -21 61 -2 103 39 23 24 42 50 42 57 0 8 5 14 11 14 7 0 8 -7 4 -17 -4
-10 -10 -27 -13 -38 -2 -11 -9 -26 -15 -32 -12 -16 -8 -16 78 2 91 19 125 34
119 50 -8 19 13 27 37 15 15 -9 24 -9 32 -1 6 6 19 11 29 11 10 0 18 5 18 10
0 6 8 10 18 9 10 0 12 -3 5 -6 -23 -9 -14 -23 15 -23 26 0 56 -22 94 -69 22
-26 34 -27 41 -2 3 15 0 19 -14 16 -12 -3 -16 1 -12 11 6 17 -15 46 -29 38 -9
-6 -37 23 -38 38 0 3 8 8 18 10 9 2 -16 7 -55 12 -40 4 -75 12 -79 17 -3 6
-19 7 -34 4 -30 -7 -100 19 -100 36 0 5 -12 9 -27 9 l-28 0 30 -25z"/>
<path d="M8020 9911 c0 -6 8 -19 18 -29 19 -19 82 -24 432 -37 103 -4 286 -20
337 -31 27 -5 36 -2 58 21 14 16 23 30 21 32 -2 2 -34 6 -72 9 -38 2 -86 7
-106 9 -40 5 -160 11 -388 20 -80 3 -180 8 -222 11 -53 4 -78 2 -78 -5z"/>
<path d="M8955 9872 c-36 -3 -65 -39 -44 -53 7 -4 47 -10 89 -13 138 -11 295
-26 335 -33 34 -5 38 -4 29 8 -8 9 -9 22 -3 37 13 33 29 26 25 -12 l-2 -34 60
-7 c34 -4 79 -9 101 -10 22 -1 63 -5 90 -9 28 -3 135 -8 239 -11 116 -4 234
-13 305 -25 64 -11 135 -20 159 -20 23 0 87 -7 141 -15 88 -13 103 -13 135 0
30 13 36 13 36 1 0 -15 63 -32 68 -18 1 5 37 1 80 -9 42 -10 133 -26 202 -37
l125 -19 34 39 c30 35 36 38 46 24 11 -14 15 -13 36 11 l24 26 -27 -7 c-22 -5
-28 -3 -28 9 0 9 -3 14 -7 12 -5 -2 -39 -1 -78 3 -62 7 -72 6 -88 -11 -22 -23
-27 -23 -42 -3 -10 14 -14 15 -33 3 -12 -8 -22 -19 -22 -26 0 -7 -4 -13 -10
-13 -16 0 -12 27 5 34 8 3 15 14 15 25 0 16 -10 20 -72 27 -40 5 -77 9 -83 9
-5 0 -14 3 -20 7 -14 9 -106 22 -130 19 -11 -2 -24 -9 -28 -17 -13 -23 -39
-18 -32 6 6 20 -9 28 -20 10 -6 -9 -73 -11 -89 -2 -4 2 -3 8 4 12 12 8 -120
18 -319 25 -63 3 -122 7 -132 10 -11 4 -26 -2 -38 -14 -26 -26 -30 -26 -24 -2
4 17 -4 19 -104 25 -59 4 -171 13 -248 21 -173 17 -353 20 -370 5 -9 -8 -26
-8 -52 -2 -21 6 -65 10 -98 11 -33 1 -71 2 -85 4 -14 1 -39 1 -55 -1z"/>
<path d="M2620 9801 c0 -25 39 -49 50 -31 5 8 9 7 13 -4 4 -9 13 -16 21 -16 8
0 37 -5 65 -11 42 -9 51 -15 60 -40 10 -30 14 -33 64 -43 22 -5 27 -12 27 -36
0 -20 5 -30 15 -30 8 0 12 6 9 14 -8 20 75 33 105 17 25 -14 29 -36 4 -26 -31
13 -47 11 -51 -6 -1 -9 5 -19 15 -22 10 -2 25 -8 35 -12 11 -4 17 -1 20 11 3
15 7 14 32 -9 52 -49 339 -110 414 -88 27 8 34 7 42 -10 14 -25 34 -24 61 4
15 15 23 18 26 10 6 -18 23 -16 44 3 17 15 19 15 30 -10 7 -14 16 -26 21 -26
5 0 7 -4 3 -9 -5 -9 3 -13 58 -25 41 -10 54 3 26 25 l-24 19 28 0 c15 0 27 -4
27 -10 0 -27 123 -66 240 -74 41 -3 86 -8 100 -12 21 -4 327 -43 353 -44 4 0
7 7 7 15 0 8 -7 15 -15 15 -9 0 -15 9 -15 25 0 14 -1 25 -2 25 -32 1 -253 34
-308 45 -41 9 -104 22 -140 30 -63 13 -234 33 -355 41 -33 2 -96 10 -140 19
-80 15 -80 15 -97 -8 -10 -12 -18 -16 -18 -9 0 6 -9 12 -21 12 -14 0 -19 5
-16 14 6 16 -51 28 -99 20 -21 -3 -37 1 -52 14 -18 16 -100 40 -162 48 -19 2
-102 35 -116 45 -6 5 -15 4 -21 -2 -14 -14 -55 -8 -61 9 -3 10 4 12 29 8 l34
-5 -22 19 c-39 31 -29 43 30 37 28 -3 60 -8 70 -12 13 -5 17 -2 17 13 0 15 5
19 19 15 12 -3 17 -11 14 -19 -3 -8 1 -14 11 -14 9 0 16 5 16 10 0 15 22 12
63 -10 34 -18 60 -21 227 -24 l189 -4 -16 24 c-8 13 -25 24 -37 24 -11 0 -64
5 -116 10 -52 6 -144 14 -205 20 -240 21 -253 21 -269 5 -19 -20 -63 -19 -74
1 -13 23 -45 13 -53 -16 l-6 -25 -12 28 c-6 16 -11 32 -11 36 0 8 -53 18 -152
28 -43 4 -48 2 -48 -16z"/>
<path d="M2035 9800 c-3 -5 -1 -10 6 -10 19 0 -2 -18 -26 -22 -11 -1 -24 -7
-28 -13 -6 -6 -10 -6 -14 3 -6 16 -43 16 -43 -1 0 -21 22 -37 52 -37 33 0 39
-29 8 -37 -11 -3 -20 -9 -20 -14 0 -12 27 -11 35 1 4 6 11 8 16 4 5 -3 16 0
24 6 21 18 47 4 43 -22 -2 -16 -9 -22 -23 -21 -12 2 -5 -5 15 -15 19 -9 43
-24 53 -33 33 -30 137 -51 137 -28 0 6 12 1 26 -10 65 -51 40 10 -34 83 -15
14 -24 36 -25 61 -2 22 -9 41 -17 45 -48 23 -119 47 -113 37 4 -6 -7 -1 -24
11 -35 25 -39 26 -48 12z"/>
<path d="M12908 9802 c20 -13 10 -46 -14 -50 -11 -2 -31 6 -44 18 -12 11 -28
20 -34 20 -23 0 -144 -28 -162 -37 -10 -6 -47 -11 -82 -12 -34 -1 -74 -6 -88
-11 -14 -6 -39 -10 -55 -10 -17 0 -36 -8 -46 -20 -18 -21 -43 -27 -43 -10 0 6
-12 10 -27 10 -24 0 -25 -2 -11 -17 8 -10 15 -29 16 -43 1 -18 -1 -21 -8 -11
-7 12 -11 12 -24 -2 -9 -8 -16 -18 -16 -21 0 -7 131 4 144 12 14 9 127 30 196
36 140 13 169 21 163 46 -4 16 0 20 20 20 14 0 29 5 32 10 12 19 45 11 45 -10
0 -11 5 -20 10 -20 6 0 10 5 10 10 0 6 7 10 15 10 8 0 15 5 15 10 0 6 11 10
23 10 32 0 40 10 23 29 -8 9 -15 21 -15 26 0 6 -13 11 -28 13 -19 2 -24 0 -15
-6z"/>
<path d="M2268 9723 c6 -2 10 -9 6 -14 -3 -5 -1 -9 4 -9 13 0 82 -64 82 -76 0
-5 17 -28 38 -51 29 -34 44 -43 70 -43 25 0 32 -4 32 -20 0 -24 19 -26 46 -5
24 18 38 19 31 1 -4 -9 0 -12 12 -9 11 3 21 -4 29 -21 10 -23 42 -37 42 -18 0
4 4 13 9 21 7 11 16 8 47 -13 21 -14 46 -26 56 -26 11 0 15 -5 12 -14 -4 -10
11 -19 53 -31 32 -10 67 -19 78 -21 11 -2 94 -20 185 -40 273 -59 340 -72 465
-89 66 -8 158 -22 205 -30 173 -28 365 -42 355 -24 -4 5 -2 9 3 9 6 0 12 -7
16 -15 5 -14 66 -22 66 -9 0 3 -9 19 -21 35 -11 16 -16 29 -10 29 11 0 27 -16
53 -53 18 -25 80 -33 310 -43 86 -3 162 -3 170 2 22 14 42 14 58 -1 10 -8 53
-15 125 -19 61 -2 129 -8 153 -12 28 -4 42 -3 42 5 0 6 16 2 39 -10 37 -19 58
-20 353 -21 172 -1 408 -1 523 0 116 0 239 0 275 -2 36 -1 77 2 91 6 14 5 36
5 50 0 34 -13 53 -2 57 31 3 27 1 29 -35 27 -21 -1 -42 -1 -48 1 -26 6 -124 9
-590 13 -294 2 -527 8 -565 15 -84 14 -90 14 -84 -4 8 -21 -25 -20 -41 1 -10
15 -13 15 -26 1 -12 -12 -17 -13 -29 -2 -9 8 -55 15 -120 19 -58 3 -150 10
-205 15 -97 10 -204 20 -275 26 -19 1 -53 8 -74 13 -27 8 -45 8 -59 1 -11 -7
-17 -7 -13 -1 3 5 -20 16 -52 25 -86 23 -121 27 -127 17 -3 -6 -11 -10 -16
-10 -6 0 -7 5 -4 10 8 12 16 10 -85 20 -47 4 -115 13 -152 20 -57 11 -72 10
-105 -2 -37 -15 -83 -8 -83 13 0 5 -7 6 -16 2 -9 -3 -19 -1 -23 5 -4 6 -43 14
-88 18 -80 7 -81 6 -85 -17 -3 -22 -7 -24 -48 -21 -44 4 -70 16 -70 33 0 4 13
4 29 -1 28 -8 41 -5 41 11 0 8 -32 17 -87 24 -41 5 -126 27 -298 75 -60 17
-119 32 -130 33 -12 2 -26 7 -33 11 -23 14 -120 44 -126 39 -3 -3 -18 -1 -35
5 -26 9 -29 8 -24 -5 4 -11 2 -14 -5 -9 -7 4 -12 13 -12 20 0 16 -63 38 -85
29 -12 -4 -16 -3 -12 4 4 6 -1 14 -11 18 -28 13 -144 54 -194 70 -25 9 -59 22
-75 30 -15 8 -32 15 -38 14 -5 0 -4 -3 3 -6z"/>
<path d="M11272 9660 c-13 -16 -29 -30 -36 -30 -17 0 -30 -30 -18 -42 5 -5 55
-10 111 -13 57 -3 120 -9 140 -15 20 -5 104 -11 187 -12 128 -3 154 0 188 16
32 15 42 16 61 6 13 -7 28 -9 34 -5 7 4 17 2 24 -3 7 -5 25 -6 45 0 25 7 32
14 32 33 0 16 6 25 15 25 8 0 15 -5 15 -11 0 -6 6 -17 14 -24 11 -11 26 -11
86 -1 67 11 73 14 86 44 8 21 9 32 2 32 -6 0 -5 6 3 16 12 15 7 16 -56 11 -60
-4 -72 -8 -92 -32 -23 -26 -25 -26 -37 -9 -8 10 -11 25 -8 33 4 11 -2 13 -38
7 -24 -4 -49 -14 -55 -23 -14 -18 -113 -22 -125 -4 -8 13 -22 0 -33 -32 -7
-20 -34 -33 -45 -22 -4 4 -1 10 6 12 16 6 15 28 -2 42 -11 9 -15 7 -19 -8 -6
-25 -81 -47 -111 -33 -12 6 -28 13 -36 15 -12 4 -11 6 4 13 13 5 21 3 24 -4 6
-18 71 -15 79 3 8 22 -4 30 -22 15 -11 -9 -19 -9 -28 -2 -7 6 -82 12 -177 15
-91 2 -172 7 -180 11 -11 4 -23 -3 -38 -24z"/>
<path d="M9605 9580 c-44 -10 -93 -24 -110 -31 -28 -12 -29 -13 -7 -16 29 -6
28 -17 -4 -42 -34 -26 -47 -27 -39 -1 5 14 2 20 -9 20 -19 0 -19 -2 -4 -34 9
-21 8 -29 -5 -43 -8 -10 -16 -22 -17 -28 -1 -5 -12 -9 -26 -8 -13 1 -24 -2
-24 -8 0 -5 -7 -9 -16 -9 -10 0 -13 6 -9 19 3 10 -1 24 -10 31 -12 10 -15 10
-15 -1 -1 -10 -5 -8 -14 4 -12 16 -12 24 1 54 14 34 14 35 -6 30 -11 -2 -22 0
-24 6 -2 7 -9 7 -23 -1 -18 -11 -18 -12 4 -18 19 -5 33 -34 17 -34 -16 0 -87
43 -92 55 -5 15 -44 21 -56 8 -4 -3 -26 -7 -49 -7 -34 -1 -43 -5 -46 -21 -5
-23 -40 -65 -56 -65 -5 0 0 9 12 20 12 12 22 32 22 45 l0 24 -102 -4 c-150 -7
-227 -14 -378 -36 -159 -23 -157 -23 -370 -49 -207 -24 -352 -37 -505 -45 -66
-3 -149 -11 -185 -17 -36 -5 -113 -9 -171 -9 -58 1 -153 -5 -210 -14 -57 -8
-156 -15 -219 -14 -995 4 -1807 14 -1968 24 -120 8 -123 7 -147 -15 -25 -23
-50 -21 -27 2 10 10 1 15 -39 24 -28 6 -63 8 -78 4 l-26 -7 33 -7 c17 -4 32
-12 32 -18 0 -6 11 -8 26 -5 20 3 27 -1 34 -19 9 -24 10 -24 182 -25 95 0 315
-3 488 -6 323 -6 1382 -5 1615 1 72 2 202 6 290 10 88 3 237 8 330 11 94 3
211 10 260 15 152 17 379 32 620 40 186 6 461 17 625 23 74 3 130 -4 130 -15
0 -7 -34 -51 -76 -98 -88 -98 -98 -117 -82 -162 15 -45 51 -76 96 -84 20 -3
53 -9 73 -14 34 -7 189 2 259 15 145 27 141 26 151 53 10 25 11 26 24 9 10
-15 17 -16 41 -7 16 6 37 19 46 27 13 11 18 12 18 3 0 -8 6 -10 18 -5 9 4 24
8 32 11 122 31 203 55 223 66 12 6 29 12 37 13 8 1 47 9 85 18 64 15 162 32
240 42 124 15 208 27 256 35 30 6 80 10 110 10 52 0 125 13 136 23 3 3 2 11
-2 16 -4 8 -11 6 -21 -4 -16 -15 -94 -21 -94 -7 0 4 5 13 12 20 9 9 8 12 -6
12 -9 0 -25 -4 -35 -9 -10 -6 -78 -12 -151 -16 -73 -3 -149 -9 -169 -15 -20
-5 -70 -12 -111 -15 -132 -10 -209 -36 -235 -79 l-19 -31 -5 26 -6 27 -75 -20
c-41 -10 -85 -26 -97 -34 -15 -9 -23 -11 -23 -3 0 13 -4 12 -193 -24 -133 -25
-167 -42 -167 -86 0 -11 -4 -22 -9 -26 -14 -8 -25 35 -12 48 33 33 17 35 -226
28 -50 -2 -96 0 -102 3 -18 11 -13 31 14 56 14 13 23 30 20 38 -3 7 0 10 6 7
6 -4 13 2 16 14 3 12 8 21 12 22 28 3 45 12 92 44 l54 37 75 -8 c41 -4 86 -8
100 -9 14 -1 45 -8 70 -15 32 -9 49 -9 62 -1 11 7 19 7 23 1 10 -15 128 -12
176 5 24 9 54 13 66 10 56 -14 110 47 99 109 -10 51 -91 114 -166 130 -80 16
-215 14 -295 -4z m331 -96 c25 -24 25 -26 9 -44 -53 -59 -239 -67 -359 -16
-45 19 -40 27 24 46 115 34 140 39 218 39 76 1 85 -1 108 -25z"/>
<path d="M11087 9393 c-3 -4 6 -21 19 -36 29 -34 84 -46 103 -23 10 12 16 13
32 3 20 -12 22 -11 48 33 7 11 14 8 38 -17 23 -25 34 -29 61 -25 39 5 52 21
23 29 -12 3 -21 9 -21 14 0 12 23 12 36 0 5 -6 18 -2 32 10 24 19 23 19 -123
16 -126 -2 -149 -5 -160 -20 -15 -21 -25 -22 -25 -2 0 8 -6 15 -14 15 -8 0
-21 3 -29 6 -8 3 -17 2 -20 -3z"/>
<path d="M12177 9374 c-11 -14 -30 -29 -43 -34 -13 -5 -24 -14 -24 -20 0 -16
-37 -12 -55 6 -22 22 -40 5 -21 -21 9 -13 26 -18 60 -18 41 0 50 4 84 40 34
38 42 41 85 41 38 -1 47 -4 42 -16 -4 -12 2 -13 35 -8 22 3 40 2 40 -3 0 -9
-30 -25 -42 -23 -5 1 -8 -5 -8 -13 0 -19 7 -19 60 0 39 14 45 14 61 -1 26 -23
53 -14 57 19 4 31 32 38 32 7 0 -11 -5 -20 -11 -20 -5 0 -7 -5 -4 -11 5 -7 15
-5 32 6 20 14 30 15 53 5 16 -7 31 -18 34 -26 6 -16 36 -19 36 -4 0 6 -8 25
-18 43 -12 23 -26 33 -47 35 -16 2 -34 10 -40 19 -8 10 -28 16 -56 17 -40 1
-44 -1 -41 -22 2 -13 -3 -25 -12 -28 -19 -7 -56 13 -56 31 0 8 -6 15 -12 16
-7 0 -56 2 -108 5 -93 4 -95 4 -113 -22z"/>
<path d="M7235 9269 c-27 -4 -86 -13 -130 -19 -80 -12 -154 -42 -247 -100 -27
-16 -48 -25 -48 -20 0 6 -39 10 -92 9 -74 0 -88 -3 -71 -11 13 -6 25 -20 29
-30 4 -15 9 -17 17 -9 16 16 47 13 47 -4 0 -10 10 -15 28 -15 36 0 47 -9 65
-50 16 -36 81 -107 136 -148 31 -23 31 -23 31 -3 0 31 17 25 25 -7 9 -44 98
-99 192 -120 53 -12 233 -13 275 -2 18 5 35 9 38 8 14 -3 91 45 109 68 26 34
27 89 2 130 -34 55 -166 115 -317 143 -53 10 -74 6 -74 -15 0 -8 -5 -14 -11
-14 -6 0 -8 9 -4 20 7 22 -14 36 -40 26 -14 -5 -13 -10 6 -36 13 -16 29 -30
37 -30 7 0 19 -6 27 -13 17 -18 101 -16 97 2 -2 9 3 11 15 6 10 -4 39 -12 65
-18 26 -5 55 -18 64 -28 16 -18 16 -19 -4 -19 -25 0 -26 -3 -11 -32 14 -27 4
-65 -20 -73 -36 -11 -342 14 -390 32 -84 31 -180 106 -181 141 0 11 21 13 98
11 53 -2 103 0 110 4 6 5 12 4 12 -1 0 -11 61 -30 78 -24 17 5 15 22 -3 22 -8
0 -21 13 -30 29 -16 32 -37 39 -125 42 -62 3 -80 7 -80 20 0 23 94 52 201 63
31 3 80 11 110 16 110 21 497 -9 585 -46 28 -12 100 -27 240 -51 21 -3 41 1
58 13 33 21 23 34 -36 45 -24 4 -79 15 -123 24 -44 9 -87 17 -95 17 -8 1 -19
4 -25 8 -5 4 -26 10 -45 14 -19 3 -46 8 -60 11 -108 22 -427 31 -535 14z"/>
<path d="M13700 9264 c0 -2 10 -12 22 -23 15 -15 18 -24 11 -33 -6 -7 -12 -21
-14 -31 -4 -18 -6 -17 -29 3 -14 12 -24 27 -22 32 2 6 -4 8 -13 4 -9 -3 -19
-6 -21 -6 -2 0 -4 -11 -4 -25 0 -25 -23 -35 -35 -15 -8 12 -48 13 -60 1 -6 -5
-19 -11 -30 -14 -15 -3 -13 -5 8 -6 16 0 36 -5 46 -10 26 -15 138 -22 166 -11
22 8 25 7 23 -7 -2 -12 10 -20 47 -29 73 -19 89 7 24 40 -33 16 -39 41 -8 32
13 -4 30 -8 38 -10 7 -1 17 -10 22 -18 5 -10 17 -14 28 -11 10 3 22 -1 26 -8
6 -9 2 -11 -13 -7 -23 6 -48 -15 -37 -32 3 -5 13 -10 20 -10 23 0 105 43 105
55 0 14 -57 35 -94 35 -26 0 -87 34 -94 52 -2 4 -12 8 -22 8 -28 0 -50 11 -50
25 0 7 -9 15 -20 18 -11 3 -20 3 -20 1z"/>
<path d="M13960 9205 c-7 -8 -11 -15 -9 -16 2 0 13 -2 24 -4 11 -2 21 -9 23
-14 2 -6 10 -11 17 -11 7 0 16 -7 19 -16 8 -21 8 -21 -13 -27 -11 -3 -20 -16
-23 -36 -3 -24 -1 -30 9 -26 7 3 20 8 28 11 9 4 15 1 15 -9 0 -8 7 -18 16 -21
16 -6 16 6 -2 67 -3 11 0 17 9 17 8 0 17 9 20 21 4 16 12 20 39 17 27 -2 33 0
32 15 -2 17 -1 17 17 1 15 -13 22 -15 31 -6 15 15 50 16 65 1 6 -6 22 -7 39
-3 29 8 29 8 -11 15 -22 4 -69 10 -105 14 -36 3 -81 10 -100 16 -47 12 -53 11
-46 -6 3 -9 0 -15 -9 -15 -7 0 -20 7 -29 15 -8 8 -21 15 -29 15 -8 0 -20 -7
-27 -15z"/>
<path d="M8219 9152 c-15 -2 -35 -12 -44 -22 -16 -18 -15 -20 20 -34 21 -9 52
-16 71 -16 18 0 44 -5 57 -11 16 -7 35 -8 59 -1 25 7 39 6 52 -3 19 -14 143
-31 191 -26 17 1 37 9 46 17 20 18 36 18 47 -2 8 -14 10 -14 21 0 19 23 4 36
-39 36 -21 0 -41 4 -44 9 -3 4 -49 11 -102 15 -53 4 -107 11 -120 16 -15 6
-40 4 -71 -4 -76 -22 -123 -28 -123 -16 0 5 17 10 38 10 20 0 43 4 50 9 16 10
-69 28 -109 23z"/>
<path d="M14333 9092 c-18 -8 -33 -19 -33 -23 0 -4 14 -19 31 -33 24 -21 27
-27 15 -32 -8 -3 -30 -1 -49 5 -39 13 -81 2 -90 -23 -7 -18 -1 -23 57 -40 41
-12 47 -12 65 5 30 28 43 24 39 -12 -3 -36 -9 -32 118 -88 104 -47 114 -49
114 -20 0 11 4 18 9 14 5 -3 12 -1 16 5 7 12 25 4 25 -11 0 -5 -6 -9 -14 -9
-31 0 -23 -28 14 -49 21 -12 48 -34 59 -49 17 -23 20 -24 21 -8 0 19 1 19 20
1 15 -14 23 -16 32 -7 17 17 2 44 -22 37 -14 -5 -20 -2 -20 9 0 18 -15 21 -25
6 -10 -16 -22 -12 -39 15 -16 25 -16 27 6 45 20 16 21 21 11 39 -18 29 -16 41
7 41 11 0 20 7 20 15 0 8 -9 15 -19 15 -10 0 -21 -7 -25 -15 -6 -18 -39 -20
-68 -4 -18 9 -24 8 -34 -6 -12 -17 -14 -17 -20 -2 -3 10 -12 17 -20 17 -22 0
-16 12 21 49 19 19 32 38 29 43 -3 5 -11 4 -18 -1 -9 -8 -18 -6 -32 4 -24 18
-34 19 -34 1 0 -22 -21 -31 -32 -13 -7 13 -14 14 -34 7 -37 -14 -44 -12 -44
10 0 27 26 36 63 22 17 -6 32 -10 35 -8 10 11 -21 45 -45 50 -62 14 -79 14
-110 -2z"/>
<path d="M916 9082 c-8 -13 44 -47 94 -61 75 -21 100 -24 100 -12 0 6 5 11 11
11 5 0 8 -4 4 -9 -3 -5 3 -12 12 -14 116 -31 267 -58 310 -56 21 1 55 -1 76
-5 24 -5 37 -3 37 3 0 15 32 14 56 -3 18 -13 51 -20 81 -17 7 1 10 8 6 17 -5
15 -1 16 33 9 21 -4 41 -10 44 -14 8 -11 62 -32 68 -27 9 10 -29 56 -51 61
-62 13 -101 14 -114 3 -11 -9 -16 -9 -22 1 -5 7 -27 15 -51 18 -33 5 -45 2
-52 -10 -10 -19 -38 -12 -38 10 0 10 -12 14 -42 13 -24 -1 -115 17 -203 40
-88 23 -164 42 -170 42 -27 3 -45 -3 -45 -16 0 -21 -24 -36 -49 -29 -16 4 -21
11 -18 24 3 11 -2 19 -17 23 -30 8 -54 7 -60 -2z"/>
<path d="M8917 9033 c-2 -10 -8 -25 -11 -34 -6 -13 0 -18 26 -22 53 -9 199
-45 233 -57 19 -7 204 -54 275 -70 19 -4 48 -13 63 -19 25 -10 29 -9 34 8 3
11 12 22 20 25 12 5 14 1 11 -19 -7 -37 9 -41 38 -10 13 14 24 28 24 30 0 2
-19 9 -41 15 -32 9 -44 9 -49 0 -5 -9 -9 -9 -14 -1 -4 6 -4 11 1 11 30 1 -122
54 -232 79 -27 7 -66 16 -85 21 -144 36 -205 48 -208 40 -2 -6 -13 -10 -23
-10 -11 0 -17 5 -14 10 3 6 2 10 -4 10 -5 0 -16 3 -24 6 -9 3 -16 -2 -20 -13z"/>
<path d="M3005 8982 c-22 -2 -44 -10 -48 -18 -10 -18 -28 -18 -21 0 5 13 -9
14 -83 12 -234 -9 -342 -19 -347 -32 -3 -8 -12 -14 -21 -14 -8 0 -15 -7 -15
-15 0 -8 5 -15 10 -15 6 0 10 5 10 10 0 6 7 10 15 10 7 0 18 6 22 14 7 12 16
11 58 -9 27 -13 49 -23 50 -22 8 42 62 62 67 25 2 -15 11 -24 26 -26 12 -2 22
1 22 7 0 6 3 10 8 9 4 -1 29 2 56 7 26 4 150 8 275 9 134 1 228 5 230 11 4 9
-2 13 -49 34 -23 9 -163 11 -265 3z"/>
<path d="M3420 8972 c0 -5 11 -14 24 -20 23 -10 37 -40 48 -106 2 -11 9 -21
16 -22 7 -1 8 0 2 3 -5 2 -7 9 -4 14 3 6 11 5 20 -2 19 -15 18 -29 -2 -29 -8
0 -12 -5 -8 -11 4 -7 18 0 38 20 34 35 36 30 -29 77 -14 10 -16 17 -8 25 9 9
18 4 39 -20 l26 -32 122 6 c66 3 204 7 304 9 144 2 186 6 194 17 7 11 11 11
15 2 6 -15 53 -18 53 -3 0 6 -4 10 -10 10 -5 0 -10 5 -10 10 0 6 10 10 23 10
18 0 19 2 7 10 -20 13 -107 13 -115 0 -3 -5 -1 -10 4 -10 6 0 11 -5 11 -10 0
-15 -72 -1 -86 16 -9 12 -44 15 -160 15 -179 0 -316 -9 -324 -20 -3 -5 -23 -2
-45 6 -22 9 -52 15 -67 15 -14 -1 -32 5 -38 13 -13 16 -40 20 -40 7z"/>
<path d="M3340 8962 c0 -5 9 -17 20 -27 18 -16 19 -42 0 -30 -13 8 -249 -24
-303 -42 -49 -16 -49 -16 -22 -27 24 -10 245 -12 305 -3 14 2 35 5 48 5 12 1
22 9 22 17 0 8 5 15 11 15 6 0 8 7 5 17 -4 9 -1 20 5 24 17 10 -22 45 -60 54
-17 4 -31 2 -31 -3z"/>
<path d="M4300 8941 c0 -4 12 -14 28 -22 15 -8 33 -20 40 -26 9 -9 46 -13 107
-13 78 0 93 3 89 14 -7 19 37 9 49 -11 11 -17 37 -17 37 1 0 15 27 29 40 21 5
-3 7 -11 4 -18 -5 -15 61 -37 111 -37 22 0 38 6 41 15 4 8 11 15 16 15 6 0 5
-6 -2 -15 -10 -12 -9 -16 5 -22 11 -4 22 0 30 10 7 10 18 17 25 17 9 0 10 -3
1 -14 -9 -11 -5 -15 21 -20 35 -6 205 -21 375 -31 101 -7 102 -7 96 15 -5 20
-4 21 16 10 13 -7 20 -17 17 -26 -6 -16 10 -19 19 -4 8 13 85 13 85 0 0 -11
22 -15 220 -35 193 -19 389 -43 455 -55 28 -5 106 -21 175 -35 69 -14 159 -30
200 -35 73 -10 189 -26 240 -34 138 -22 258 -38 320 -42 l75 -5 -40 25 c-64
41 -86 48 -101 35 -11 -9 -18 -9 -28 0 -9 7 -32 10 -57 7 -24 -3 -46 -1 -49 4
-3 5 -30 11 -60 13 -30 2 -89 11 -130 20 -41 8 -97 19 -125 23 -67 9 -140 22
-305 50 -14 2 -54 8 -90 13 -36 5 -117 17 -180 26 -63 9 -133 19 -155 22 -22
3 -44 9 -50 13 -11 8 -300 34 -348 31 -15 -1 -36 3 -45 8 -18 9 -190 28 -332
37 -41 2 -92 6 -113 9 -20 3 -37 2 -36 -2 4 -23 -5 -22 -52 4 l-51 27 -237 1
c-130 0 -238 3 -241 6 -8 9 -110 19 -110 10z"/>
<path d="M8941 8862 c-19 -2 -41 -11 -48 -20 -9 -12 -15 -14 -20 -6 -15 23
-225 -17 -243 -46 -7 -11 -12 -11 -23 -2 -14 12 -53 4 -110 -24 -16 -8 -36
-14 -46 -14 -9 0 -48 -16 -87 -35 -38 -19 -72 -35 -76 -35 -3 0 -46 -19 -95
-42 -99 -48 -48 -44 -469 -35 -223 4 -231 4 -227 -14 4 -14 0 -19 -16 -19 -13
0 -25 -9 -31 -24 -11 -29 -55 -39 -92 -20 -20 10 -38 12 -67 5 -22 -5 -51 -6
-65 -4 -33 7 -33 -10 -1 -31 22 -15 36 -15 113 -5 126 17 447 0 440 -23 -4
-12 -114 -56 -267 -107 -95 -32 -111 -40 -95 -49 32 -18 5 -27 -29 -10 -18 9
-54 17 -82 17 -94 1 -175 29 -175 61 0 28 11 50 25 50 7 0 23 9 36 19 l24 20
-23 21 -23 21 -34 -21 c-40 -25 -95 -99 -95 -129 0 -32 55 -78 102 -87 24 -4
91 -7 149 -7 95 0 119 4 225 38 66 21 186 64 268 97 129 52 154 59 190 53 22
-3 59 -8 81 -11 46 -5 161 -23 220 -34 22 -4 74 -13 115 -20 113 -18 181 -31
225 -45 22 -7 99 -23 170 -35 72 -12 164 -30 205 -40 126 -31 140 -33 140 -18
1 9 5 7 14 -4 14 -19 66 -25 66 -9 0 5 9 13 20 16 11 3 20 10 20 15 0 11 -56
29 -111 36 -24 3 -55 8 -69 11 -14 3 -39 6 -57 7 -17 0 -35 5 -39 9 -4 4 -20
7 -35 7 -15 0 -65 9 -111 20 -46 12 -105 23 -133 26 -27 3 -68 10 -90 16 -45
13 -49 14 -124 22 -30 4 -57 9 -61 11 -8 5 -177 41 -260 55 -25 5 -57 6 -72 3
-21 -4 -28 -2 -28 10 0 9 4 18 9 22 6 3 72 6 148 6 178 1 250 7 268 26 8 8 15
10 15 4 0 -17 75 -13 231 13 79 13 167 27 194 31 78 10 125 27 136 48 6 10 8
21 5 24 -2 3 -40 -2 -83 -12 -265 -56 -718 -104 -742 -79 -3 4 0 9 8 12 7 2
22 13 31 22 10 10 21 16 23 13 3 -2 23 7 46 21 22 14 47 26 55 26 8 0 21 6 28
13 7 6 18 12 23 12 6 1 51 14 100 30 50 16 99 30 110 31 11 1 52 12 90 23 99
30 249 42 295 23 44 -17 80 -50 80 -72 0 -9 -9 -25 -20 -35 -15 -14 -17 -21
-9 -32 17 -20 43 -16 69 12 82 87 -57 194 -229 177z"/>
<path d="M9683 8839 c-4 -13 -11 -18 -21 -14 -8 3 -20 -3 -28 -12 -11 -16 -9
-20 19 -35 18 -9 39 -17 48 -18 8 0 76 -20 151 -45 147 -48 188 -55 188 -29 0
9 9 27 20 42 25 31 20 36 -45 50 -119 25 -226 52 -242 60 -10 5 -33 12 -51 16
-29 5 -35 3 -39 -15z"/>
<path d="M2765 8721 c5 -18 2 -19 -28 -14 -32 5 -34 3 -40 -27 -9 -40 -1 -53
28 -47 17 3 25 -1 28 -15 5 -19 27 -26 27 -8 0 17 25 11 51 -10 19 -18 32 -20
79 -15 73 8 130 25 130 41 0 17 -17 21 -80 18 -122 -7 -158 -6 -179 5 -29 16
-27 32 11 63 l33 27 -33 1 c-29 0 -32 -3 -27 -19z"/>
<path d="M10360 8681 c0 -6 -9 -11 -20 -11 -22 0 -63 -36 -67 -59 -3 -25 18
-43 44 -36 16 4 25 1 29 -10 4 -8 13 -15 21 -15 8 0 11 5 8 10 -13 21 19 9 41
-15 13 -14 30 -25 39 -25 18 0 20 11 4 27 -8 8 -8 13 0 18 6 3 15 -4 20 -16 7
-21 9 -20 15 14 5 27 12 37 26 37 10 0 22 -9 25 -20 6 -20 7 -20 33 -1 42 30
123 8 142 -39 6 -14 31 -38 55 -54 25 -15 45 -34 45 -42 0 -7 9 -18 19 -24 25
-13 61 -13 61 1 0 5 5 7 10 4 6 -4 8 -10 5 -15 -7 -11 52 -33 91 -34 19 -1 34
-4 34 -8 0 -19 29 -5 56 27 16 19 35 35 41 35 7 0 13 7 13 15 0 8 -9 15 -19
15 -11 0 -23 5 -26 10 -10 16 -35 12 -35 -5 0 -9 -8 -19 -17 -22 -10 -4 -23
-14 -29 -22 -9 -12 -15 -13 -26 -3 -11 9 -17 9 -26 0 -22 -22 -25 2 -3 26 14
15 19 26 12 31 -6 3 -11 15 -11 26 0 10 -6 19 -14 19 -8 0 -21 3 -30 6 -11 4
-19 -2 -25 -19 -9 -22 -29 -37 -51 -37 -4 0 -15 12 -25 26 -13 20 -14 28 -5
40 10 11 9 15 -4 19 -9 3 -23 7 -32 10 -9 3 -25 -2 -35 -11 -17 -16 -19 -15
-28 9 -10 26 -77 54 -181 76 -49 11 -135 35 -162 46 -11 4 -18 3 -18 -4z"/>
<path d="M15157 8569 c-3 -12 1 -32 9 -44 9 -14 11 -26 5 -29 -5 -3 -11 -1
-13 5 -3 8 -10 8 -26 -2 -12 -8 -20 -19 -18 -25 3 -7 -2 -21 -10 -33 -12 -16
-12 -25 -3 -42 8 -16 8 -23 0 -29 -7 -3 -9 -15 -5 -25 5 -13 3 -16 -7 -13 -13
4 -19 28 -23 86 -2 30 -16 23 -39 -21 -10 -20 -23 -37 -28 -37 -19 0 -8 -19
14 -22 16 -2 21 -9 19 -25 -2 -14 4 -23 18 -28 11 -3 20 -12 20 -20 0 -8 8
-16 18 -19 10 -4 27 -14 38 -24 10 -9 31 -23 46 -31 17 -8 28 -24 30 -42 4
-25 1 -29 -19 -29 -13 0 -23 -5 -23 -11 0 -6 7 -8 17 -5 9 4 20 1 24 -6 6 -10
14 -8 35 7 28 21 88 94 67 82 -6 -4 -15 -2 -19 4 -5 8 0 10 18 6 20 -5 29 0
48 25 12 17 16 27 9 22 -8 -5 -23 -10 -34 -11 -11 -1 -35 -3 -53 -5 -19 -3
-37 1 -44 9 -6 7 -27 13 -47 13 -29 0 -38 5 -48 25 -11 25 -5 33 13 16 5 -5
29 -11 54 -13 25 -2 55 -10 67 -16 30 -16 35 -16 78 13 40 28 57 27 34 -2 -13
-16 -12 -17 4 -4 10 8 29 39 43 70 14 31 30 64 35 74 11 21 4 68 -18 110 -13
26 -16 27 -26 12 -10 -13 -20 -14 -53 -7 -30 7 -48 6 -65 -4 -31 -17 -39 -17
-39 1 0 10 10 15 30 15 17 0 30 5 30 11 0 7 -12 9 -36 5 -21 -4 -41 -3 -49 4
-9 8 -17 7 -28 -5 -18 -17 -47 -20 -47 -5 0 6 7 13 15 16 19 8 20 24 1 24 -7
0 -16 -10 -19 -21z m109 -111 c-28 -16 -7 -30 34 -23 26 4 48 1 68 -9 37 -19
57 -13 72 22 9 23 9 21 5 -18 -6 -44 -25 -70 -52 -70 -7 0 -13 -5 -13 -11 0
-6 -6 -9 -14 -6 -16 6 -82 -15 -98 -31 -17 -17 -32 -15 -60 7 -13 11 -33 19
-43 18 -23 -2 -29 20 -16 56 8 20 18 27 36 27 17 0 35 11 52 30 13 17 29 27
35 24 7 -4 4 -10 -6 -16z"/>
<path d="M3411 8434 c-24 -10 -38 -11 -53 -3 -14 8 -23 8 -31 0 -6 -6 -29 -11
-51 -11 l-39 0 23 -25 c16 -17 34 -25 58 -25 28 0 32 3 23 13 -6 8 -8 17 -5
20 8 8 66 -3 79 -15 6 -6 -1 -7 -19 -2 -21 5 -27 4 -22 -5 10 -16 110 -8 132
10 13 10 17 10 24 -1 6 -9 32 -13 89 -13 45 0 84 -3 87 -8 7 -12 64 -11 64 1
0 6 -11 16 -25 22 -26 12 -33 28 -12 28 7 0 5 5 -5 11 -12 7 -28 5 -54 -6 -47
-19 -84 -20 -84 0 0 11 -12 15 -47 16 -27 0 -59 2 -73 4 -14 2 -40 -3 -59 -11z"/>
<path d="M4214 8431 c-2 -3 -71 -5 -152 -5 l-147 -1 -3 -26 c-3 -25 -1 -27 55
-31 32 -3 59 -4 61 -3 2 2 -1 13 -8 24 -8 15 -8 21 0 21 14 0 40 -25 40 -38 0
-16 122 -2 143 16 15 13 23 13 57 2 22 -7 38 -16 35 -19 -3 -3 4 -10 16 -17
20 -10 19 -12 -19 -17 -28 -5 -41 -13 -45 -27 -6 -22 -37 -18 -37 6 0 14 -48
10 -82 -7 -17 -9 -34 -46 -25 -56 3 -3 39 -1 79 3 66 8 73 11 76 32 3 21 5 22
20 9 14 -13 33 -13 112 -5 52 5 118 9 145 10 28 0 58 4 67 9 10 6 19 5 23 -1
7 -11 125 -14 125 -4 0 12 -53 69 -64 69 -6 0 -10 8 -8 17 1 9 -3 20 -10 24
-15 10 -120 5 -132 -6 -13 -13 42 -43 82 -45 19 0 37 -6 40 -13 5 -16 -68 -16
-103 0 -19 9 -28 9 -37 0 -21 -21 -31 -13 -25 23 3 19 1 37 -4 40 -5 4 -9 0
-9 -8 0 -8 -11 -17 -25 -19 -19 -4 -25 -1 -25 13 0 20 -24 26 -35 9 -4 -6 -14
-5 -28 4 -22 14 -142 27 -153 17z"/>
<path d="M4700 8410 c0 -10 9 -22 21 -25 11 -4 25 -20 31 -36 5 -16 14 -29 19
-29 18 0 24 -2 36 -12 15 -12 390 -21 397 -9 3 5 23 7 44 4 23 -3 48 1 66 11
18 9 36 12 45 7 9 -5 22 -6 29 -4 18 7 15 -15 -5 -25 -11 -6 -25 -6 -39 0 -28
13 -63 3 -46 -14 6 -6 50 -12 99 -13 48 -2 126 -10 172 -19 107 -20 121 -20
120 2 0 10 -3 12 -6 5 -7 -18 -23 -16 -23 2 0 16 27 20 49 6 7 -5 10 -14 7
-20 -4 -6 -1 -11 6 -11 7 0 18 10 23 22 16 35 33 33 40 -5 5 -26 13 -36 38
-45 55 -19 107 -25 107 -13 0 6 -5 11 -11 11 -23 0 -139 85 -139 103 0 9 -4
17 -9 17 -5 0 -18 3 -28 7 -16 6 -16 5 -4 -11 11 -13 11 -20 2 -29 -8 -8 -15
-6 -27 11 -15 22 -64 31 -64 12 0 -5 -4 -10 -10 -10 -5 0 -10 6 -10 14 0 10
-13 14 -47 13 -48 0 -118 13 -202 39 -24 8 -48 11 -53 8 -6 -4 -27 -1 -47 6
-26 8 -52 9 -91 2 -42 -8 -57 -7 -65 3 -5 7 -37 16 -69 20 -50 6 -58 5 -53 -8
5 -13 -2 -16 -36 -15 -40 0 -131 23 -152 38 -5 5 -34 8 -62 8 -45 0 -53 -3
-53 -18z"/>
<path d="M11315 8375 c-26 -25 -31 -40 -16 -49 5 -3 7 -15 4 -26 -4 -16 0 -20
20 -20 13 0 44 -7 67 -15 52 -18 51 -18 44 0 -5 12 3 15 42 14 27 0 72 2 101
4 45 3 52 1 57 -17 7 -28 -6 -38 -35 -28 -28 9 -109 1 -93 -10 6 -4 45 -11 85
-14 49 -5 83 -14 100 -27 29 -21 66 -17 66 8 0 8 -3 15 -6 15 -4 0 -6 16 -6
37 0 20 -5 38 -13 40 -8 3 -11 -4 -10 -19 2 -17 -3 -24 -21 -26 -13 -2 -28 2
-35 8 -8 10 -5 11 17 6 15 -3 27 -4 27 -2 0 15 -50 56 -76 61 -16 4 -47 13
-68 21 -28 11 -41 12 -46 4 -9 -15 -40 -1 -33 16 3 8 0 14 -5 14 -6 0 -12 -7
-14 -16 -3 -13 -6 -13 -24 3 -55 49 -93 55 -129 18z"/>
<path d="M6041 8291 c-16 -12 -22 -24 -18 -35 10 -26 43 -18 65 16 l20 32 7
-37 c7 -36 8 -37 54 -38 25 0 64 -2 86 -4 139 -14 199 -15 187 -3 -7 7 -12 16
-12 20 0 12 34 10 48 -4 9 -9 17 -9 35 1 21 11 28 9 60 -12 40 -27 75 -34 222
-42 62 -4 123 -14 160 -27 35 -12 88 -21 127 -22 36 -1 64 -4 62 -8 -2 -3 22
-11 53 -17 32 -6 81 -16 108 -22 100 -22 176 -39 243 -55 37 -8 76 -17 87 -19
11 -1 28 -6 38 -10 29 -12 48 13 41 54 -4 20 -7 37 -8 38 -2 2 -54 12 -117 23
-63 12 -152 30 -199 41 -187 45 -350 71 -350 56 0 -5 -10 -6 -22 -3 -13 4 -34
9 -48 12 -14 3 -29 9 -35 15 -5 5 -28 9 -50 9 -23 0 -66 4 -96 10 -30 5 -92
11 -139 14 -47 2 -119 10 -160 17 -104 17 -288 18 -299 1 -6 -10 -10 -10 -21
3 -18 22 -98 20 -129 -4z"/>
<path d="M9277 8255 c-4 -8 -13 -15 -22 -15 -17 0 -20 -16 -6 -25 10 -6 60
-15 106 -20 17 -1 37 -5 45 -8 25 -7 105 -26 106 -24 1 1 5 12 8 24 6 19 4 22
-10 16 -13 -5 -15 -3 -9 7 6 10 3 12 -13 8 -14 -4 -22 0 -25 12 -3 12 -19 19
-53 24 -115 17 -121 17 -127 1z"/>
<path d="M3665 8228 c-97 -15 -165 -31 -165 -38 0 -4 -23 -10 -51 -12 -28 -3
-55 -11 -59 -18 -4 -7 -13 -9 -20 -5 -9 5 -11 4 -6 -3 4 -7 1 -12 -8 -12 -20
0 -21 -14 -2 -29 16 -13 28 -51 16 -51 -4 0 -14 10 -22 22 l-15 22 -12 -22
c-6 -12 -21 -22 -31 -22 -24 0 -26 -13 -5 -30 12 -10 26 -8 72 11 31 13 64 24
73 25 32 3 151 37 284 81 106 35 134 48 121 55 -12 7 -20 5 -29 -7 -11 -15
-13 -15 -30 4 -19 21 -19 21 17 21 21 0 37 5 37 10 0 12 -85 10 -165 -2z"/>
<path d="M14765 8219 c6 -18 5 -19 -14 -7 -18 11 -23 11 -30 -1 -5 -7 -15 -11
-22 -9 -8 3 -36 -15 -63 -39 -26 -23 -54 -43 -61 -43 -20 0 -28 -19 -15 -35 6
-8 9 -18 7 -22 -8 -12 -57 -8 -66 5 -5 8 -14 8 -33 -2 -14 -8 -43 -19 -65 -26
-64 -21 -75 -29 -61 -44 7 -6 21 -15 31 -19 9 -3 17 -14 17 -24 1 -17 1 -17
11 0 11 19 33 24 27 6 -2 -6 12 -27 31 -46 27 -27 43 -35 70 -35 20 0 37 5 39
11 2 6 14 8 26 5 24 -6 162 17 208 35 14 5 44 28 66 50 26 27 46 39 56 35 17
-7 22 11 6 21 -5 3 -10 15 -10 26 0 26 -28 24 -57 -3 l-23 -21 0 21 c0 11 5
24 10 27 12 7 4 25 -12 25 -5 0 -8 -7 -5 -15 8 -19 -10 -30 -27 -16 -15 13
-29 0 -40 -36 -4 -13 -12 -23 -17 -23 -12 0 -12 17 1 25 17 10 11 33 -15 61
-32 35 -32 40 7 48 25 5 40 1 61 -15 16 -11 30 -19 31 -17 4 6 26 59 26 63 0
4 -90 55 -97 55 -2 0 -1 -9 2 -21z m-46 -128 l24 -18 -21 -19 c-26 -22 -28
-34 -7 -34 13 0 14 -4 5 -20 -14 -25 -5 -40 23 -40 20 -1 20 -2 -6 -16 -15 -8
-41 -17 -57 -19 -16 -2 -37 -8 -46 -13 -23 -13 -88 24 -80 45 3 8 6 19 6 24 0
5 8 9 18 9 11 0 23 13 30 35 12 30 63 85 80 85 4 0 18 -9 31 -19z"/>
<path d="M5993 8206 c-50 -15 -40 -33 24 -41 31 -4 65 -10 77 -15 28 -11 95
-29 126 -34 14 -3 57 -12 95 -21 76 -17 272 -54 293 -55 6 0 12 7 12 15 0 9
-6 12 -15 9 -11 -5 -15 1 -15 22 0 15 -2 25 -6 22 -3 -3 -26 1 -52 8 -77 24
-175 35 -184 21 -5 -8 -13 -6 -27 7 -11 10 -42 21 -68 23 -26 3 -52 9 -58 13
-20 14 -65 21 -65 9 0 -15 -66 -5 -89 13 -12 10 -24 11 -48 4z"/>
<path d="M1936 8150 c-14 -43 -16 -94 -5 -132 16 -54 26 -68 45 -61 8 3 14 2
13 -3 -7 -38 38 -77 124 -109 40 -15 54 -16 87 -6 45 13 47 17 23 44 -18 19
-17 20 5 8 27 -14 37 -9 29 14 -4 9 -19 15 -36 15 -30 0 -71 38 -71 66 0 8
-21 25 -47 38 -58 29 -88 60 -79 81 3 10 1 15 -7 14 -18 -3 -50 12 -64 30 -10
14 -12 14 -17 1z"/>
<path d="M6625 8077 c3 -12 7 -27 7 -33 1 -12 111 -37 165 -38 17 -1 35 -4 39
-9 13 -13 52 -8 58 8 3 8 17 15 32 15 26 0 26 -1 10 -19 -17 -19 -17 -20 21
-30 47 -13 53 -14 53 -1 0 6 -9 10 -21 10 -33 0 -20 34 16 38 24 3 27 1 17
-11 -17 -20 9 -43 34 -29 15 8 15 9 -1 15 -19 8 -11 27 11 27 8 0 14 -9 14
-20 0 -17 3 -19 19 -11 24 13 31 5 31 -36 0 -27 4 -33 23 -35 31 -2 38 -3 70
-16 16 -7 36 -12 45 -12 23 -1 52 -24 52 -43 0 -8 -15 -21 -32 -27 -24 -9 -28
-14 -16 -17 9 -2 20 -13 23 -24 8 -23 15 -23 60 -5 35 15 70 67 62 91 -3 7
-20 23 -39 36 -21 15 -28 17 -19 6 17 -21 12 -21 -25 -2 -21 11 -24 15 -11 15
10 0 15 5 12 11 -4 6 -14 8 -22 4 -19 -7 -63 20 -63 38 0 16 -66 36 -209 66
-41 8 -57 8 -68 -1 -11 -9 -16 -9 -22 1 -8 12 -119 33 -134 24 -4 -3 -13 0
-20 5 -15 12 -55 21 -126 27 -52 5 -53 4 -46 -18z"/>
<path d="M2815 8046 c-87 -12 -105 -20 -105 -42 0 -8 -5 -14 -11 -14 -6 0 -9
6 -6 13 4 12 -2 12 -80 8 -17 -1 -23 -7 -23 -23 -1 -21 -2 -22 -14 -5 -12 16
-46 24 -46 11 0 -3 7 -18 17 -34 l16 -28 45 24 c59 32 76 26 29 -10 -35 -27
-36 -29 -20 -52 14 -22 14 -24 0 -24 -27 0 -67 19 -67 32 -1 7 -16 30 -34 50
-29 33 -36 37 -69 31 -34 -5 -35 -7 -26 -31 6 -15 15 -32 21 -40 6 -7 13 -24
14 -38 2 -19 -2 -24 -19 -24 -12 0 -28 -9 -34 -19 -11 -17 -9 -19 15 -14 15 3
45 6 67 8 46 3 156 23 162 29 3 2 0 13 -6 24 -6 11 -8 27 -5 35 6 17 60 31 77
20 6 -4 23 -7 37 -7 18 -1 25 -6 23 -19 -1 -22 23 -20 142 13 44 12 100 28
125 35 25 7 46 19 48 27 3 18 -64 62 -73 48 -3 -5 -12 -7 -20 -3 -19 7 -19 -6
0 -31 17 -23 11 -36 -17 -36 -15 0 -18 4 -14 17 4 11 -4 28 -26 50 -17 18 -34
32 -37 32 -4 -1 -42 -7 -86 -13z"/>
<path d="M7888 8042 c-19 -19 -25 -82 -9 -82 5 0 17 -3 27 -7 14 -5 13 -2 -5
16 -26 26 -20 42 17 37 35 -4 71 -26 78 -49 8 -26 50 -50 76 -43 23 5 48 46
48 77 0 32 -53 54 -155 63 -50 5 -63 3 -77 -12z"/>
<path d="M5105 8027 c-35 -5 -69 -16 -81 -28 -11 -10 -28 -19 -37 -19 -22 0
-30 -17 -12 -24 8 -3 20 1 27 8 8 7 25 16 38 19 84 21 84 21 77 4 -3 -9 -2
-19 3 -22 4 -3 10 0 12 6 3 9 13 9 38 1 19 -6 54 -16 78 -23 24 -7 45 -16 48
-20 4 -8 -21 -24 -85 -54 -18 -9 -30 -19 -26 -23 4 -4 9 -6 11 -4 3 1 12 -4
20 -12 10 -11 21 -13 32 -7 9 5 40 21 69 35 l52 27 31 -48 c31 -51 37 -73 19
-73 -6 0 -9 6 -6 14 8 19 -31 55 -42 38 -11 -19 -93 -114 -129 -151 -51 -53
-80 -121 -51 -121 19 0 69 -41 69 -57 0 -12 -8 -13 -40 -8 -56 9 -64 0 -40
-43 22 -39 57 -65 128 -96 50 -22 62 -16 33 15 -12 13 -21 28 -21 34 0 6 -13
19 -30 28 -31 19 -44 65 -15 53 13 -5 13 -2 -1 25 -19 37 -12 74 22 120 15 21
22 40 18 52 -4 12 -2 17 4 13 16 -10 43 5 40 22 -2 8 4 16 13 17 28 5 92 71
83 86 -6 12 -5 12 8 1 8 -7 36 -13 62 -14 25 -1 46 -6 46 -10 0 -4 22 -8 48
-8 73 0 104 45 66 98 -30 43 -122 70 -140 41 -3 -6 -15 -9 -25 -6 -10 3 -22 1
-25 -4 -8 -14 -72 -11 -81 4 -14 24 -95 77 -118 77 -11 0 -26 -5 -33 -12 -16
-16 -28 -2 -14 15 18 21 2 28 -24 10 -13 -8 -24 -11 -24 -7 0 5 -5 2 -10 -6
-7 -12 -12 -12 -21 -3 -9 9 -9 15 0 27 17 21 4 24 -64 13z"/>
<path d="M5796 7995 c-15 -8 -40 -16 -55 -16 -14 -1 -3 -5 24 -9 28 -4 54 -3
60 1 11 10 54 11 108 3 27 -5 37 -11 37 -25 0 -11 2 -19 4 -19 3 0 37 -7 77
-15 66 -14 73 -14 84 1 8 12 14 14 19 6 4 -7 5 -16 1 -21 -3 -6 16 -13 42 -17
27 -3 57 -11 67 -17 25 -12 130 -34 144 -29 22 7 -1 32 -29 32 -19 0 -29 5
-29 15 0 18 -37 34 -105 45 -27 4 -115 22 -195 40 -181 41 -217 45 -254 25z"/>
<path d="M8194 7985 c1 -20 5 -24 21 -19 14 3 11 -3 -14 -25 -19 -17 -43 -29
-57 -28 -36 3 -31 -17 7 -25 19 -3 52 -12 74 -18 22 -6 58 -15 80 -20 22 -5
58 -13 80 -19 22 -5 51 -12 65 -15 14 -3 54 -13 89 -21 35 -9 71 -13 80 -9 32
14 43 14 30 -2 -14 -17 -9 -23 22 -29 13 -3 67 -15 119 -27 116 -28 153 -26
169 8 12 27 31 24 31 -6 0 -26 50 -37 67 -14 10 13 9 21 -5 40 -18 25 -32 31
-32 12 0 -6 -9 -3 -21 8 -17 16 -22 16 -29 4 -8 -12 -10 -10 -10 7 0 29 -28
55 -50 48 -10 -3 -21 -2 -24 4 -3 5 -25 12 -49 16 -23 3 -49 8 -58 11 -9 3
-20 -5 -27 -18 -8 -18 -11 -19 -11 -5 -1 21 -5 21 -37 1 -24 -16 -26 -16 -46
5 -14 16 -23 20 -31 12 -16 -16 -27 -13 -27 8 0 10 -7 24 -15 31 -12 10 -15 9
-15 -8 0 -24 -25 -46 -40 -37 -7 4 -10 16 -7 26 3 10 -2 24 -10 30 -27 23
-177 69 -238 74 -33 2 -61 9 -63 15 -7 20 -20 10 -18 -15z"/>
<path d="M13238 7934 c-21 -9 -38 -22 -38 -30 0 -21 62 -18 86 4 29 27 63 26
70 -3 4 -18 15 -26 39 -31 19 -3 39 -3 45 1 7 4 15 3 19 -2 9 -14 141 -26 141
-13 0 5 -11 12 -25 16 -24 6 -24 7 -7 32 l16 25 -60 -5 c-33 -3 -67 -2 -75 2
-8 4 -50 10 -94 13 -60 5 -89 2 -117 -9z"/>
<path d="M4916 7931 c-4 -6 -2 -19 4 -30 7 -14 7 -22 -1 -27 -6 -3 -9 -19 -5
-35 3 -16 1 -29 -6 -31 -21 -7 1 -26 48 -42 74 -25 230 -2 203 30 -17 20 -37
17 -44 -7 -5 -16 -12 -19 -28 -13 -12 4 -42 8 -67 9 -65 3 -70 4 -70 16 0 6 8
8 19 4 11 -3 25 1 34 10 9 8 21 15 27 15 7 0 8 6 1 18 -7 14 -5 27 10 51 10
17 19 32 19 34 0 1 -18 3 -40 4 -30 2 -43 -2 -54 -18 l-14 -20 -15 21 c-9 13
-17 17 -21 11z"/>
<path d="M6518 7873 c-22 -6 -23 -20 -3 -40 11 -11 26 -13 57 -8 35 6 40 5 35
-9 -7 -17 4 -21 83 -30 25 -3 110 -14 190 -25 158 -23 339 -27 371 -10 20 10
20 12 4 29 -15 17 -32 19 -149 18 -73 -1 -136 1 -142 4 -8 5 -55 13 -199 33
-41 5 -101 17 -130 25 -44 12 -98 18 -117 13z"/>
<path d="M9059 7787 c6 -8 8 -17 4 -20 -3 -4 0 -13 7 -22 10 -12 9 -20 -4 -40
-20 -30 -20 -31 0 -39 10 -4 14 -1 11 6 -5 16 16 60 37 77 13 11 17 10 22 -4
4 -9 2 -21 -5 -28 -6 -6 -11 -20 -11 -31 0 -16 3 -17 12 -8 16 16 28 15 28 -1
0 -21 75 -46 146 -49 65 -3 68 -2 74 22 4 16 14 26 30 28 13 2 29 10 36 17 11
11 8 15 -16 25 -17 7 -41 13 -55 13 -14 0 -28 3 -31 8 -3 5 -10 9 -16 9 -7 0
-7 -5 1 -14 9 -11 6 -18 -18 -35 -34 -24 -51 -27 -51 -7 0 8 8 13 18 12 11 -1
17 6 17 19 0 15 -6 19 -22 17 -13 -2 -23 2 -23 9 0 6 -8 9 -20 6 -10 -3 -20
-1 -22 4 -2 5 -16 11 -33 13 -16 3 -48 10 -70 15 -53 14 -60 14 -46 -2z"/>
<path d="M8080 7673 c-57 -8 -70 -14 -70 -33 0 -11 -5 -20 -11 -20 -6 0 -9 9
-6 20 5 19 2 20 -46 14 -29 -3 -65 -10 -82 -16 -34 -11 -176 -46 -216 -53 -41
-7 -79 -24 -79 -35 0 -7 -6 -6 -18 1 -14 9 -25 8 -50 -5 -27 -14 -32 -22 -32
-51 0 -28 3 -33 18 -28 9 3 22 9 27 13 6 4 28 8 50 8 22 1 49 3 60 6 11 2 23
5 28 5 14 2 7 21 -8 21 -8 0 -15 9 -15 20 0 25 25 26 36 3 4 -10 7 -21 6 -25
-1 -4 4 -6 11 -4 15 5 76 20 197 47 52 12 102 26 111 30 24 12 32 -2 13 -22
-15 -17 -15 -20 0 -44 9 -14 25 -25 36 -25 27 0 36 -20 11 -27 -24 -6 -27 -18
-8 -30 6 -4 12 -21 12 -38 0 -27 4 -30 34 -33 41 -4 111 -46 111 -67 0 -8 9
-15 20 -15 26 0 100 -37 100 -50 0 -6 7 -10 15 -10 8 0 15 4 15 8 0 5 12 13
28 18 l27 10 -30 29 c-17 17 -40 35 -50 41 -19 11 -19 12 10 50 16 21 33 40
37 42 4 2 24 19 45 38 21 18 45 34 54 34 22 0 79 59 79 82 0 10 -5 18 -11 18
-5 0 -7 -5 -3 -12 4 -7 3 -8 -4 -4 -7 4 -12 13 -12 21 0 8 -7 11 -20 8 -11 -3
-30 1 -43 10 -23 15 -28 15 -162 -11 -25 -4 -40 -13 -41 -22 0 -24 -20 -65
-39 -80 -13 -11 -18 -11 -25 -1 -10 17 -31 5 -28 -16 5 -25 -19 -27 -32 -2 -8
14 -9 24 -2 28 6 3 14 19 17 34 7 26 9 27 25 12 13 -12 20 -13 25 -5 4 6 5 14
2 17 -3 3 -2 15 3 28 5 14 5 26 -2 33 -6 6 -6 12 1 16 24 15 9 23 -41 22 -29
0 -64 -2 -78 -3z"/>
<path d="M9523 7653 c-31 -6 -68 -54 -51 -65 21 -12 78 -10 79 5 0 6 5 3 11
-9 7 -15 29 -26 78 -38 83 -20 81 -20 74 -1 -4 9 0 15 9 15 17 0 40 -24 31
-33 -9 -8 63 -20 76 -12 7 4 5 16 -7 35 -16 28 -16 30 3 51 l19 21 -32 -7
c-26 -5 -33 -3 -33 9 0 9 -8 16 -20 16 -11 0 -20 -5 -20 -11 0 -8 -5 -8 -15 1
-13 11 -15 8 -15 -13 0 -28 -15 -44 -25 -27 -5 7 -11 5 -19 -6 -14 -18 -36
-12 -36 11 0 8 -5 17 -11 20 -6 4 -9 0 -7 -11 5 -33 -25 -20 -37 15 -12 37
-17 41 -52 34z"/>
<path d="M13579 7599 c0 -13 -3 -18 -6 -11 -2 6 -9 12 -14 12 -6 0 -7 -5 -3
-12 5 -8 2 -9 -9 -5 -10 4 -28 2 -41 -3 -18 -7 -26 -5 -30 5 -3 8 -12 12 -21
9 -19 -8 -20 -24 0 -24 8 0 15 -4 15 -8 0 -11 40 -29 83 -37 25 -5 38 -2 51
11 13 12 20 14 29 5 8 -8 8 -11 -1 -11 -7 0 -12 -4 -12 -9 0 -10 21 -20 67
-31 25 -6 30 -5 26 7 -5 13 -3 13 15 2 11 -7 18 -17 16 -21 -3 -4 0 -8 6 -8 6
0 13 7 16 15 8 20 -22 48 -45 40 -21 -6 -51 31 -51 65 0 11 -6 20 -14 20 -7 0
-28 3 -45 6 -28 6 -31 4 -32 -17z"/>
<path d="M10030 7536 c0 -22 15 -27 46 -16 24 9 25 9 14 -5 -7 -8 -21 -15 -32
-15 -16 0 -19 -5 -15 -21 5 -19 2 -21 -24 -15 -16 3 -29 1 -29 -4 0 -10 63
-30 96 -30 11 0 25 -5 32 -12 6 -6 15 -8 19 -4 5 4 -5 19 -21 33 -33 28 -25
44 17 36 20 -4 26 -10 22 -22 -3 -11 5 -27 20 -41 29 -27 43 -21 28 13 -15 32
-6 77 14 70 9 -4 13 -14 9 -29 -8 -32 9 -39 34 -14 27 27 21 35 -43 53 -147
42 -187 47 -187 23z"/>
<path d="M7370 7520 c-14 -4 -42 -8 -62 -9 -31 -1 -38 -5 -38 -21 0 -11 -4
-20 -10 -20 -5 0 -10 7 -10 15 0 20 -20 19 -36 -2 -13 -17 -13 -17 -14 1 0 16
-5 18 -42 11 -24 -4 -69 -7 -100 -6 -31 1 -65 -2 -75 -7 -10 -5 -58 -12 -108
-16 -97 -7 -116 -16 -98 -45 8 -14 9 -21 0 -30 -18 -18 -5 -20 70 -11 39 5 88
10 107 12 22 1 36 7 36 15 0 15 16 17 24 4 5 -7 41 -8 41 -1 0 1 15 3 34 6 42
5 50 12 31 25 -11 7 -6 8 15 3 39 -9 32 -9 95 0 49 6 119 13 174 15 13 1 17 6
13 21 -4 15 0 20 14 20 10 0 19 7 19 15 0 16 -37 19 -80 5z"/>
<path d="M6485 7437 c-16 -5 -38 -13 -47 -18 -11 -5 -18 -4 -21 4 -3 9 -43 11
-158 9 -85 -2 -158 -7 -162 -11 -4 -4 -1 -14 8 -21 8 -7 15 -18 15 -24 1 -6 9
-21 20 -34 18 -22 23 -22 117 -17 54 4 125 10 158 14 33 5 65 6 72 4 21 -8 35
7 22 23 -7 8 -7 14 -1 14 5 0 15 -6 21 -13 12 -15 91 -22 91 -8 0 15 -30 41
-46 41 -8 0 -14 6 -13 13 4 35 -18 42 -76 24z"/>
<path d="M5320 7425 c0 -8 4 -15 10 -15 5 0 21 -22 34 -49 19 -36 32 -50 53
-54 51 -10 503 -7 503 3 0 6 -7 10 -16 10 -11 0 -7 9 14 30 29 29 31 29 61 14
26 -13 30 -19 20 -30 -7 -9 -8 -14 -1 -14 6 0 12 6 15 13 3 9 7 9 20 -2 13
-10 20 -11 31 -2 11 9 12 20 4 51 -9 34 -15 40 -36 40 -25 0 -25 -1 -6 -15 17
-13 18 -14 1 -15 -10 0 -20 7 -23 15 -5 13 -22 14 -102 10 -52 -3 -101 -10
-108 -15 -6 -6 -31 -9 -54 -8 -28 2 -44 -2 -47 -9 -3 -8 6 -13 24 -14 15 0 21
-3 13 -6 -8 -2 -25 -9 -37 -15 -22 -11 -34 -8 -65 14 -14 10 -22 10 -38 0 -29
-18 -35 -15 -50 23 -16 40 -19 41 -137 50 -70 5 -83 3 -83 -10z"/>
<path d="M13330 7387 c0 -4 7 -19 16 -32 15 -23 15 -24 -21 -31 -25 -4 -35
-11 -31 -20 7 -19 -10 -56 -57 -127 -28 -42 -46 -59 -67 -64 -58 -11 -17 -23
63 -19 78 4 83 6 114 39 46 50 58 106 38 165 -14 43 -54 108 -55 89z"/>
<path d="M8211 7065 c-13 -19 -30 -35 -37 -35 -21 0 -17 -15 11 -48 28 -33 32
-52 11 -52 -16 0 -66 -38 -66 -51 0 -15 15 -10 38 11 22 21 26 16 23 -22 -1
-10 4 -18 11 -18 16 0 39 46 32 65 -6 14 29 30 45 21 4 -3 16 3 26 14 15 16
15 20 4 20 -9 0 -30 15 -48 34 -28 29 -33 40 -28 65 4 17 5 31 4 31 -1 0 -13
-16 -26 -35z"/>
<path d="M8142 6834 c4 -22 94 -69 146 -77 21 -3 47 -9 60 -13 19 -5 22 -3 22
22 0 23 2 26 10 14 5 -8 10 -33 10 -56 l0 -40 48 -1 c50 0 82 -10 82 -24 0 -5
-15 -7 -32 -4 -24 3 -21 1 9 -7 49 -13 64 -37 34 -57 -12 -7 -21 -20 -21 -28
0 -8 -8 -13 -18 -11 -11 2 -27 -3 -36 -11 -15 -13 -18 -12 -23 8 l-6 22 -17
-25 c-9 -15 -19 -24 -22 -20 -4 3 -16 0 -29 -6 -19 -10 -24 -10 -34 4 -11 14
-15 14 -43 1 -16 -9 -36 -23 -43 -32 -12 -15 -12 -16 6 -8 11 5 90 10 175 11
94 0 163 5 176 12 22 12 54 68 54 96 0 29 -54 75 -110 93 -47 15 -55 22 -56
43 0 14 -1 31 -2 38 -2 15 -33 28 -87 36 -21 4 -49 9 -62 12 -23 6 -24 5 -17
-31 8 -43 -3 -42 -45 6 -19 22 -30 27 -53 22 -17 -3 -37 1 -54 12 -24 16 -26
16 -22 -1z"/>
<path d="M8082 6488 l-31 -31 19 -27 c25 -36 36 -43 99 -68 68 -28 89 -29 70
-5 -12 15 -12 16 6 9 11 -5 28 -11 38 -13 9 -3 17 -12 17 -19 0 -16 28 -29
103 -49 39 -10 47 -10 47 1 0 16 16 19 25 4 3 -5 15 -10 26 -10 11 0 18 -4 14
-9 -3 -5 -1 -12 5 -16 18 -11 0 -25 -31 -25 -21 0 -38 -10 -60 -35 -43 -49
-129 -88 -89 -40 10 12 8 19 -11 39 -23 24 -25 24 -49 9 -14 -9 -29 -22 -33
-30 -5 -7 -12 -11 -18 -8 -21 13 -7 -23 19 -48 38 -37 135 -75 117 -47 -3 6
-2 10 4 10 5 0 14 -6 18 -14 4 -8 20 -18 36 -21 21 -6 27 -4 27 9 0 9 -7 16
-15 16 -8 0 -15 7 -15 15 0 18 5 18 31 4 11 -5 24 -21 29 -33 6 -17 18 -25 45
-28 43 -5 49 1 35 36 -8 22 -14 25 -35 20 -19 -5 -25 -2 -25 10 0 20 33 21 50
1 7 -9 21 -13 30 -10 12 4 27 -6 47 -28 33 -38 69 -51 110 -41 l27 7 -25 10
-24 9 24 9 c16 6 28 6 37 -2 10 -8 14 -8 14 0 0 6 -5 11 -11 11 -7 0 -9 9 -6
21 4 15 2 19 -8 15 -8 -3 -65 11 -127 31 l-113 36 52 18 c72 24 139 34 147 20
6 -9 28 -8 94 5 38 8 27 41 -20 65 -35 18 -64 23 -153 25 -67 2 -129 9 -157
19 -26 8 -67 16 -92 17 -25 1 -43 4 -40 7 2 2 -41 26 -96 53 -57 28 -100 55
-100 64 0 8 7 14 15 14 8 0 15 7 15 15 0 8 -7 15 -15 15 -8 0 -15 5 -15 10 0
22 -49 8 -78 -22z"/>
<path d="M8980 5900 c0 -5 7 -10 15 -10 8 0 15 -4 15 -10 0 -5 -4 -10 -9 -10
-13 0 -22 -29 -15 -54 4 -17 12 -22 38 -22 22 0 52 -14 93 -43 34 -24 66 -40
72 -36 6 3 11 -1 11 -10 0 -8 11 -21 25 -27 14 -6 25 -15 25 -19 0 -4 -19 -21
-42 -38 -24 -16 -58 -43 -77 -60 -34 -30 -34 -31 -10 -31 30 0 56 -16 45 -27
-4 -4 -20 -8 -34 -8 -20 0 -26 -4 -24 -18 2 -10 -5 -20 -15 -23 -10 -3 -32
-12 -50 -20 -42 -19 -44 -18 -39 11 6 30 -9 33 -24 5 -6 -11 -15 -20 -21 -20
-11 0 -101 -58 -139 -90 -38 -32 -97 -60 -125 -60 -22 0 -78 27 -195 94 -74
43 -172 27 -186 -29 -10 -41 1 -56 37 -48 28 5 31 4 26 -11 -4 -10 -7 -22 -7
-28 0 -6 -8 -4 -18 5 -44 40 -71 3 -32 -45 23 -30 18 -38 -24 -38 -44 0 -18
-21 30 -25 22 -1 47 -6 57 -10 12 -5 17 -3 17 8 0 9 -4 19 -10 22 -5 3 -10 15
-10 27 0 15 5 19 20 15 10 -3 27 1 37 9 22 16 33 18 33 4 0 -6 7 -22 16 -36
12 -18 20 -22 29 -14 9 7 15 8 19 1 8 -12 34 -3 60 21 24 22 34 22 55 4 13
-12 25 -13 56 -5 22 6 52 13 66 16 50 9 217 108 284 168 191 169 255 231 272
264 10 20 23 39 28 43 21 16 -22 7 -44 -9 -23 -16 -24 -16 -19 4 4 16 -3 25
-33 42 -21 12 -44 19 -51 15 -6 -4 -8 -3 -5 3 4 6 -14 23 -38 39 -43 27 -57
44 -35 44 6 0 10 8 10 18 0 10 6 24 13 31 10 11 7 13 -13 8 -14 -3 -39 -11
-56 -18 -28 -11 -34 -10 -49 4 -25 25 -55 40 -55 27z"/>
<path d="M8143 5152 c5 -27 4 -29 -26 -30 -17 0 -33 -6 -35 -11 -2 -6 -12 -11
-23 -11 -10 0 -19 -7 -19 -15 0 -10 10 -15 31 -15 20 0 29 -4 26 -12 -2 -7
-14 -12 -25 -10 -12 2 -25 -3 -28 -11 -5 -15 -50 -12 -60 4 -3 5 -13 9 -24 9
-10 0 -32 14 -50 30 -35 32 -70 39 -90 15 -17 -20 -5 -33 25 -27 15 2 33 -2
43 -10 22 -20 53 -32 74 -29 32 4 28 -18 -8 -35 l-36 -17 -25 31 c-13 18 -31
32 -38 32 -29 0 -24 -21 16 -62 58 -60 86 -59 156 8 29 28 55 49 57 47 8 -8
45 21 50 40 3 15 10 18 23 12 25 -11 38 -9 113 11 35 10 58 20 50 22 -8 3 -30
18 -48 33 -27 24 -42 29 -84 29 -50 0 -50 0 -45 -28z"/>
<path d="M7745 5067 c-11 -8 -45 -22 -75 -32 -84 -28 -169 -85 -167 -112 2
-27 5 -28 28 -7 25 23 32 1 9 -29 l-20 -26 22 -15 c15 -11 26 -12 32 -6 14 14
26 12 26 -4 0 -22 21 -31 31 -13 8 14 13 12 35 -10 23 -23 30 -25 81 -19 40 5
60 13 73 29 10 12 22 18 26 14 5 -4 2 -12 -6 -17 -8 -5 -11 -12 -7 -16 4 -5
17 2 28 13 21 21 21 21 3 46 -14 18 -28 24 -56 24 -36 0 -68 16 -68 34 0 5 11
9 25 9 32 0 32 23 0 44 -30 19 -35 20 -35 3 0 -7 -16 -19 -35 -27 -19 -7 -36
-19 -39 -27 -3 -7 -12 -13 -21 -13 -11 0 -14 -6 -9 -25 8 -30 -6 -33 -24 -4
-12 18 -10 25 14 57 35 48 53 62 80 62 15 0 25 8 30 23 9 30 24 38 47 25 15
-8 18 -6 15 8 -4 23 -19 27 -43 11z"/>
<path d="M8641 4848 c-12 -4 -31 -18 -41 -31 -15 -18 -21 -20 -31 -9 -20 19
-38 15 -65 -15 -17 -19 -27 -24 -31 -15 -2 6 -9 12 -15 12 -5 0 -16 7 -24 15
-14 13 -14 15 1 15 9 0 25 -5 36 -10 13 -7 19 -7 19 -1 0 20 -88 26 -106 8 -3
-3 4 -20 16 -38 20 -28 24 -29 33 -14 8 14 11 15 18 4 14 -23 11 -28 -26 -43
-47 -20 -44 -26 5 -14 33 9 52 7 103 -10 118 -38 107 -38 107 7 0 31 -4 41
-16 41 -12 0 -14 7 -9 33 9 39 13 47 27 47 5 0 7 -7 4 -15 -7 -20 21 -32 37
-16 8 8 7 11 -3 11 -10 0 -11 3 -3 11 9 9 19 6 41 -10 47 -33 92 -24 48 10
-30 24 -96 38 -125 27z"/>
<path d="M8840 4849 c0 -6 -9 -8 -20 -4 -16 5 -20 2 -20 -14 0 -24 20 -36 73
-46 30 -6 41 -4 51 10 7 10 18 15 25 11 9 -6 9 -11 1 -21 -8 -10 0 -16 37 -28
33 -11 50 -12 54 -5 4 6 12 7 18 4 6 -4 11 -3 11 3 0 5 -5 13 -11 17 -6 3 -9
20 -7 36 4 23 0 31 -16 38 -12 4 -31 3 -44 -3 -17 -8 -33 -7 -58 2 -29 10 -38
10 -51 -1 -13 -10 -17 -10 -20 0 -6 15 -23 16 -23 1z"/>
<path d="M8750 4661 c0 -11 6 -23 13 -28 20 -13 108 -43 157 -54 25 -5 63 -14
85 -19 42 -9 85 -4 85 10 0 5 -10 12 -22 16 -13 4 -39 20 -59 35 -45 36 -104
41 -96 9 5 -21 -3 -26 -18 -11 -6 6 -32 11 -60 13 -41 2 -52 7 -60 26 -12 27
-25 29 -25 3z"/>
<path d="M8007 4394 c-3 -4 0 -16 8 -28 25 -35 17 -41 -14 -12 -16 16 -34 25
-40 22 -17 -11 -14 -18 29 -63 27 -30 44 -61 56 -103 10 -37 22 -60 31 -60 8
0 13 -8 11 -17 -2 -10 7 -22 20 -29 13 -6 28 -16 34 -22 6 -6 16 -8 23 -6 6 3
18 -3 26 -12 13 -16 10 -17 -38 -12 -53 5 -59 -3 -31 -39 6 -7 4 -19 -4 -32
-17 -27 0 -41 18 -16 14 18 17 18 27 4 7 -8 27 -22 45 -30 38 -17 41 -29 7
-29 -27 0 -34 -15 -10 -24 14 -5 11 -36 -4 -36 -4 0 -25 18 -48 40 -35 33 -43
37 -53 25 -10 -12 -9 -15 4 -15 21 0 56 -35 56 -57 0 -15 2 -16 10 -3 8 12 10
11 10 -8 0 -29 -29 -41 -45 -19 -7 10 -23 17 -35 17 -22 0 -22 -1 -7 -18 10
-10 17 -26 17 -35 0 -61 84 19 135 128 43 91 51 158 30 233 -19 66 -56 154
-62 149 -2 -2 6 -26 17 -52 23 -54 18 -73 -10 -35 -52 71 -179 200 -196 200
-6 0 -14 -3 -17 -6z"/>
<path d="M7496 3792 c-15 -3 -16 -6 -5 -12 22 -14 -18 -52 -42 -40 -32 18 -37
-24 -6 -58 9 -10 14 -22 10 -25 -15 -15 11 -6 33 12 23 18 23 20 8 29 -16 9
-16 11 -2 26 21 20 39 21 32 1 -5 -11 -2 -13 10 -9 9 3 14 10 11 14 -7 11 34
24 43 15 4 -4 7 -12 7 -18 0 -6 15 -14 33 -18 l34 -7 -7 34 c-4 26 -2 34 9 34
8 0 16 -5 18 -12 3 -7 10 -8 17 -4 9 6 -1 14 -30 28 -41 18 -111 22 -173 10z"/>
<path d="M8150 3460 c0 -5 1 -11 2 -12 1 -2 -4 -14 -11 -26 -12 -22 -11 -24
16 -22 75 5 89 0 144 -51 29 -27 63 -55 74 -60 11 -5 31 -16 44 -24 40 -22 47
-4 11 25 -26 21 -32 32 -28 53 3 15 2 24 -2 22 -10 -6 -42 30 -33 38 3 4 1 7
-5 7 -6 0 -14 9 -17 20 -8 25 -25 26 -25 2 0 -27 23 -72 38 -72 6 0 12 -7 12
-15 0 -13 -3 -13 -20 -3 -11 7 -20 16 -20 20 0 5 -9 8 -20 8 -11 0 -27 12 -37
28 -24 36 -44 51 -70 52 -12 0 -25 5 -28 10 -3 6 -10 10 -16 10 -5 0 -9 -4 -9
-10z"/>
<path d="M6581 3268 c2 -57 57 -154 107 -188 52 -35 61 -37 29 -8 -24 22 -25
27 -12 38 8 7 15 9 15 4 0 -4 7 1 15 12 14 19 14 19 15 -3 0 -23 56 -77 71
-67 16 10 10 31 -15 47 -13 9 -30 22 -37 30 -8 7 -28 18 -44 24 -17 5 -36 22
-43 37 -8 15 -25 32 -38 38 -13 6 -24 17 -24 24 0 7 -9 18 -20 24 -17 9 -20 8
-19 -12z"/>
<path d="M8050 3114 c0 -18 63 -104 80 -109 10 -3 33 -26 52 -50 21 -29 40
-45 53 -44 11 1 26 1 33 0 18 -2 14 -41 -5 -49 -10 -4 -19 -16 -20 -27 -1 -17
2 -16 23 8 28 33 32 91 9 124 -12 17 -22 21 -44 17 -16 -3 -31 -2 -34 4 -4 5
5 7 21 4 l27 -5 -20 23 c-11 12 -32 28 -47 36 -30 16 -51 19 -28 4 8 -5 11
-12 7 -16 -9 -9 -47 25 -47 42 0 8 -13 20 -30 29 -16 9 -30 12 -30 9z"/>
<path d="M8628 2968 c17 -17 15 -25 -9 -31 -15 -4 -20 -11 -16 -21 4 -11 1
-16 -10 -16 -8 0 -27 -12 -40 -26 -20 -22 -30 -25 -61 -20 -20 3 -32 2 -26 -2
6 -4 9 -21 7 -38 -4 -27 -8 -30 -31 -26 -26 4 -26 4 -7 -11 16 -12 17 -17 6
-30 -7 -9 -10 -25 -7 -35 5 -13 -2 -30 -19 -50 -32 -39 -32 -45 5 -40 24 4 30
1 30 -13 0 -11 14 -26 31 -35 33 -17 184 -64 205 -64 6 0 14 14 16 31 l5 31
-41 -5 c-26 -4 -46 -1 -56 7 -8 7 -45 25 -82 40 -37 15 -72 34 -78 41 -29 36
56 111 159 140 31 9 63 19 71 22 8 4 22 8 30 8 8 1 21 3 29 4 10 1 11 4 2 14
-6 8 -8 17 -4 20 3 4 1 7 -5 7 -23 0 -27 2 -44 17 -10 9 -18 28 -18 43 0 29
-16 50 -39 50 -12 0 -12 -3 -3 -12z"/>
<path d="M9093 2834 c-7 -7 -10 -20 -7 -28 4 -9 1 -16 -6 -16 -8 0 -11 -9 -8
-25 3 -16 1 -25 -7 -25 -22 0 -26 -43 -7 -69 24 -33 42 -38 42 -12 0 12 5 21
10 21 6 0 10 9 10 19 0 22 35 51 62 51 18 0 68 -47 68 -64 0 -5 6 -17 14 -25
8 -9 19 -32 24 -51 8 -27 10 -29 11 -12 2 49 -106 196 -135 185 -8 -3 -14 0
-14 7 0 6 5 8 10 5 17 -11 11 7 -7 22 -36 28 -48 31 -60 17z"/>
<path d="M7173 2256 c8 -20 -3 -27 -24 -16 -14 8 -19 6 -24 -10 -8 -26 -22
-26 -30 0 -9 30 -25 14 -25 -25 0 -26 3 -33 15 -29 8 4 15 1 15 -5 0 -6 -4
-11 -10 -11 -17 0 -11 -24 15 -54 13 -16 27 -36 30 -45 3 -10 22 -21 48 -27
35 -7 42 -13 41 -31 0 -13 5 -23 13 -23 16 0 17 42 1 58 -17 17 -4 24 26 13
16 -7 26 -18 26 -31 0 -17 6 -20 38 -20 55 0 71 15 31 29 -17 6 -39 11 -48 11
-9 1 -29 11 -44 24 l-28 23 38 11 c21 6 65 14 98 17 33 3 85 8 115 11 30 3 56
7 59 10 2 2 18 -7 35 -19 37 -28 79 -46 59 -26 -7 7 -13 21 -13 31 0 10 -6 18
-14 18 -13 0 -31 28 -23 36 8 8 77 -49 77 -64 0 -33 18 -44 93 -62 41 -10 84
-21 95 -24 17 -6 19 -3 15 14 -7 25 -34 41 -74 42 -22 1 -31 7 -35 25 -4 13
-15 28 -25 34 -18 9 -19 7 -13 -31 6 -34 4 -39 -9 -34 -16 6 -40 61 -32 74 7
11 -36 27 -106 40 -35 7 -77 18 -94 25 -16 7 -61 18 -100 25 -38 6 -86 16
-106 21 -57 14 -112 12 -106 -5z"/>
<path d="M8415 2145 c-38 -44 -87 -48 -117 -10 -19 24 -46 36 -33 15 4 -6 2
-17 -5 -24 -6 -8 -8 -25 -5 -39 6 -23 4 -26 -27 -29 -24 -2 -38 3 -50 19 -22
26 -58 20 -58 -11 -1 -20 -1 -20 -14 -3 -19 25 -72 20 -68 -5 3 -19 -13 -24
-23 -8 -3 6 -13 10 -21 10 -12 0 -12 -4 2 -25 9 -14 24 -25 33 -25 10 0 26 -7
37 -15 34 -26 126 -16 122 14 -2 12 7 17 40 19 31 2 42 7 42 20 1 15 2 15 15
-2 14 -19 19 -19 86 6 51 19 67 35 79 76 14 51 0 58 -35 17z"/>
<path d="M6804 1915 c43 -65 64 -85 91 -85 13 0 54 -7 91 -15 36 -9 69 -14 72
-11 3 3 11 1 17 -4 11 -9 54 -22 150 -45 l30 -7 -30 24 c-16 13 -47 40 -68 61
-26 26 -45 37 -58 34 -10 -3 -19 -1 -19 3 0 4 -8 6 -18 3 -10 -2 -24 3 -31 11
-8 9 -20 16 -28 16 -11 0 -13 -7 -8 -31 l7 -32 -33 26 c-19 14 -42 35 -51 46
-11 13 -30 21 -50 21 -18 0 -44 3 -58 7 l-25 7 19 -29z"/>
<path d="M6410 1896 c0 -8 11 -23 23 -33 41 -32 61 -83 32 -83 -8 0 -12 6 -9
13 3 8 -5 13 -21 15 -16 1 -25 -3 -25 -13 0 -8 5 -15 10 -15 6 0 10 -4 10 -10
0 -18 -22 -10 -27 10 -3 11 -12 20 -20 20 -8 0 -13 6 -10 13 2 6 12 12 23 12
10 0 20 8 22 18 2 12 -3 17 -17 17 -12 0 -21 5 -21 10 0 6 -9 10 -20 10 -12 0
-29 -15 -46 -41 -23 -37 -24 -43 -10 -57 8 -10 18 -29 21 -44 4 -16 13 -28 20
-28 7 0 11 -9 8 -23 -3 -17 5 -29 41 -54 46 -32 60 -35 31 -6 -8 8 -12 19 -9
25 3 5 22 -8 41 -29 20 -21 43 -37 53 -35 9 1 23 -4 30 -13 7 -8 17 -15 23
-15 5 0 15 -7 21 -15 20 -28 176 -71 176 -49 0 3 -4 14 -10 24 -8 15 -6 17 10
13 33 -9 22 6 -16 22 -49 20 -71 19 -79 -5 -9 -27 -21 -25 -58 10 -18 16 -35
30 -39 30 -5 0 -8 6 -8 14 0 17 -11 25 -42 31 -12 3 -29 12 -37 20 -15 15 -13
15 14 5 l30 -11 -29 30 c-19 20 -32 27 -37 20 -5 -8 -8 -8 -13 0 -4 6 -2 11 3
11 6 0 11 11 11 24 0 15 12 35 32 51 22 18 26 26 13 23 -12 -2 -21 6 -28 25
-13 39 -2 45 31 16 22 -21 33 -24 57 -18 17 3 55 7 85 8 78 2 99 9 93 31 -6
23 -78 42 -107 27 -10 -5 -39 -7 -62 -4 -35 4 -44 1 -44 -11 0 -13 -3 -12 -19
2 -12 11 -27 15 -39 11 -11 -3 -23 -1 -27 5 -9 15 -35 12 -35 -4z"/>
<path d="M7525 1470 c-27 -10 -70 -24 -93 -30 -31 -8 -42 -15 -38 -26 4 -9 -1
-14 -14 -14 -11 0 -20 5 -20 11 0 8 -5 8 -15 -1 -17 -14 -12 -25 15 -40 14 -7
22 -6 33 4 8 8 30 17 48 21 31 6 36 3 49 -22 8 -15 15 -29 16 -31 1 -1 12 1
25 7 13 5 43 14 66 20 l41 11 -15 30 c-8 17 -22 30 -33 30 -10 0 -22 5 -25 10
-3 6 -2 10 3 10 6 0 12 7 16 15 7 18 4 18 -59 -5z"/>
<path d="M6970 1461 c0 -11 8 -24 17 -30 14 -7 15 -12 5 -24 -10 -12 -6 -16
32 -26 24 -6 52 -14 62 -18 16 -6 16 -5 -2 19 -10 14 -24 24 -30 21 -7 -2 -15
0 -19 6 -9 16 4 33 18 24 7 -4 15 -8 19 -8 4 0 16 -7 26 -16 10 -8 27 -19 37
-24 19 -8 19 -8 2 -12 -10 -3 -16 -10 -14 -16 4 -12 8 -13 44 -16 9 0 13 -4 9
-8 -4 -4 -25 -6 -47 -4 -23 1 -61 -3 -86 -11 -38 -11 -44 -16 -40 -35 4 -24
-10 -32 -19 -10 -4 13 -32 14 -142 9 -36 -2 -44 -6 -53 -29 l-11 -28 -11 23
c-13 28 -52 29 -67 2 -6 -11 -15 -18 -19 -15 -9 5 -21 -17 -21 -40 0 -24 31
-45 67 -45 34 0 35 1 31 30 -5 34 -1 36 26 15 10 -8 23 -12 28 -9 5 3 15 -2
22 -11 12 -16 13 -16 19 -1 8 20 27 21 27 1 0 -8 7 -15 15 -15 20 0 95 33 95
42 0 4 6 5 13 2 8 -3 20 2 27 11 15 18 67 20 73 3 3 -10 18 -8 63 7 32 11 65
18 72 17 8 -2 22 4 33 14 15 14 31 16 86 11 65 -6 67 -6 47 11 -12 9 -24 24
-27 34 -3 9 -22 22 -41 29 -23 8 -36 19 -36 31 0 12 -7 18 -21 18 -11 0 -29 5
-40 11 -15 7 -24 7 -35 -2 -10 -8 -14 -8 -14 0 0 16 -42 40 -76 44 -16 2 -34
6 -39 9 -6 3 -23 8 -40 12 -16 4 -38 9 -47 12 -13 4 -18 0 -18 -15z"/>
<path d="M8196 1455 c-17 -13 -17 -15 9 -39 l28 -26 -29 -1 c-27 0 -25 -2 21
-24 28 -13 57 -24 66 -25 9 0 25 -12 34 -27 16 -24 16 -27 1 -38 -15 -11 -14
-14 9 -29 14 -9 22 -22 19 -30 -5 -14 31 -56 62 -74 14 -8 12 -10 -11 -16 -21
-5 -32 -1 -52 18 -14 14 -22 30 -18 36 3 5 -2 10 -14 10 -27 0 -38 -20 -17
-32 9 -5 14 -13 11 -18 -3 -5 -1 -11 5 -15 5 -3 10 -12 10 -20 0 -10 -19 -12
-87 -9 -144 6 -155 8 -167 26 -14 22 -1 34 19 18 11 -9 19 -10 27 -2 15 15 -1
35 -24 28 -14 -3 -27 3 -39 17 -13 15 -17 16 -13 6 8 -26 -11 -31 -31 -9 -25
27 -38 25 -31 -5 8 -30 -5 -32 -42 -6 -40 29 -72 36 -72 17 0 -9 6 -17 13 -17
26 -3 33 -4 52 -16 12 -6 27 -23 35 -38 11 -20 19 -25 37 -20 16 4 23 1 23
-10 0 -17 19 -22 120 -30 143 -11 294 43 319 114 30 86 20 141 -40 208 -38 44
-38 33 1 -15 16 -21 31 -53 34 -74 2 -21 7 -42 10 -47 4 -5 2 -12 -4 -16 -5
-3 -10 -17 -10 -31 0 -31 -13 -31 -34 1 -9 14 -12 25 -6 25 21 0 -4 56 -42 90
-21 20 -38 44 -38 52 0 12 -13 19 -42 25 -28 6 -43 14 -43 24 0 8 -9 24 -20
36 -17 19 -22 20 -39 8z"/>
<path d="M5853 1378 c4 -28 39 -46 109 -58 29 -4 65 -11 81 -15 26 -7 38 7 17
20 -5 3 -10 10 -10 16 0 14 84 3 88 -11 3 -9 -2 -11 -17 -7 -11 3 -23 1 -26
-3 -10 -15 26 -40 81 -56 54 -16 56 -15 70 5 9 12 24 21 35 21 18 0 19 -2 5
-15 -8 -8 -20 -15 -26 -15 -6 0 -10 -6 -8 -12 7 -19 65 -21 90 -4 32 23 68 20
110 -9 40 -27 63 -31 73 -14 8 13 -23 38 -47 39 -10 0 -18 6 -18 14 0 8 -14
17 -32 21 -18 3 -54 11 -79 17 -34 8 -55 8 -79 0 -43 -16 -48 -15 -46 5 2 23
-206 78 -235 62 -15 -7 -23 -6 -35 6 -9 9 -33 15 -60 15 -40 0 -44 -2 -41 -22z"/>
<path d="M5471 1365 c-18 -8 -51 -15 -73 -15 -47 0 -168 -35 -195 -56 -17 -15
-17 -15 7 -10 24 5 24 4 6 -9 -14 -11 -22 -12 -27 -4 -10 16 -51 0 -47 -19 2
-8 23 -25 47 -38 44 -22 69 -50 56 -62 -4 -4 -14 3 -22 16 -9 12 -22 22 -29
22 -8 0 -28 14 -46 30 -17 17 -34 30 -37 30 -6 0 -53 -39 -100 -82 -45 -43
-56 -126 -21 -170 38 -49 89 -60 268 -59 90 0 193 -4 230 -10 37 -6 101 -14
142 -19 76 -9 91 -12 257 -49 51 -12 108 -21 127 -21 l33 0 -33 -35 c-18 -19
-42 -48 -53 -64 -19 -27 -19 -29 -3 -43 29 -24 76 -41 80 -29 7 22 24 10 18
-12 -11 -46 5 -55 179 -101 28 -7 56 -15 64 -17 8 -2 17 6 20 20 7 25 31 42
31 22 0 -6 -4 -11 -10 -11 -21 0 -10 -38 13 -43 12 -3 33 -9 46 -13 21 -6 22
-5 12 15 -31 56 42 55 102 -3 14 -14 16 -20 7 -26 -18 -11 -2 -17 65 -25 33
-4 125 -17 205 -30 140 -23 197 -29 250 -25 25 1 25 1 3 12 -12 6 -24 19 -27
30 -4 16 -11 19 -31 16 -14 -3 -28 -1 -31 3 -3 5 -20 9 -38 9 -19 0 -49 6 -67
14 -19 8 -68 16 -109 19 -41 2 -65 3 -53 0 12 -2 24 -11 27 -19 6 -17 5 -17
-48 -3 -76 21 -73 19 -53 34 23 17 8 27 -41 27 -74 0 -338 59 -436 97 l-29 12
29 30 c16 17 50 46 77 66 26 19 47 38 47 43 0 4 -12 21 -27 38 -27 29 -53 67
-53 77 0 13 24 3 40 -17 12 -16 29 -23 52 -23 27 0 34 -4 36 -22 2 -13 10 -23
18 -23 10 0 13 -7 8 -24 -4 -18 -1 -25 18 -30 36 -9 37 -8 22 24 -9 17 -20 30
-25 30 -5 0 -9 6 -9 14 0 8 -7 16 -15 20 -8 3 -12 12 -9 21 6 14 9 14 30 0 15
-9 34 -13 49 -9 33 8 39 19 13 21 -12 1 -28 9 -36 17 -25 24 10 32 44 9 19
-12 29 -14 31 -6 6 18 70 28 88 13 21 -17 61 -9 57 13 -3 19 23 24 33 6 10
-15 87 0 101 19 11 14 13 14 27 0 27 -27 116 -2 117 33 0 3 -11 18 -25 33 -16
17 -34 26 -56 26 -33 0 -34 -5 -14 -53 7 -16 4 -18 -16 -15 -16 2 -24 10 -24
23 -1 35 -13 43 -58 39 -114 -12 -127 -16 -127 -30 0 -16 -16 -19 -25 -4 -3 6
-20 10 -36 10 -17 0 -28 -4 -24 -10 3 -5 12 -7 20 -3 8 3 15 0 15 -7 0 -9 -13
-11 -48 -6 -61 8 -137 -12 -249 -65 -51 -25 -101 -42 -118 -41 -38 2 -149 20
-240 37 -97 20 -160 21 -179 6 -13 -11 -19 -11 -31 -1 -8 7 -22 9 -31 6 -20
-8 -47 12 -37 27 3 5 1 7 -4 4 -6 -4 -13 0 -17 8 -3 8 -16 15 -28 15 -32 0
-292 87 -296 98 -8 26 99 92 256 158 25 11 42 24 42 34 0 26 12 31 32 13 23
-21 26 -17 20 30 -4 34 -7 37 -36 37 -17 -1 -46 -7 -65 -15z"/>
<path d="M7240 1021 c0 -6 9 -11 20 -11 11 0 21 -4 21 -10 1 -5 3 -14 4 -20 1
-5 3 -14 4 -19 0 -5 16 -14 34 -22 17 -7 73 -32 124 -56 50 -24 96 -43 101
-43 5 0 19 -11 32 -25 28 -30 30 -30 59 -4 21 20 23 20 42 3 25 -23 24 -36 -6
-64 -16 -15 -25 -19 -25 -10 0 7 -3 10 -6 7 -4 -4 -1 -13 5 -21 8 -10 9 -16 1
-21 -5 -3 -10 -1 -10 6 0 9 -3 9 -14 0 -14 -12 -164 -9 -266 5 -19 2 -87 9
-150 14 -63 5 -137 13 -164 16 -43 6 -48 4 -43 -11 4 -9 7 -21 7 -27 0 -7 15
-8 41 -4 25 4 46 2 54 -4 8 -6 42 -14 77 -18 67 -6 87 -6 159 4 36 4 50 2 63
-11 13 -13 46 -19 134 -26 110 -8 119 -8 145 12 16 11 35 18 42 15 10 -3 16 5
21 28 7 40 -11 80 -56 125 -25 24 -37 30 -56 25 -20 -5 -26 -2 -30 13 -7 24
-108 84 -192 112 -74 25 -83 26 -76 6 4 -8 1 -15 -5 -15 -6 0 -16 11 -21 25
-5 14 -16 25 -24 25 -8 0 -21 3 -30 6 -9 3 -16 1 -16 -5z"/>
<path d="M8004 950 c-29 -11 -64 -62 -64 -92 0 -20 5 -23 34 -23 19 0 32 3 29
8 -2 4 5 19 16 33 11 15 18 31 15 36 -4 7 6 8 27 3 19 -4 39 -8 44 -9 6 0 12
-9 15 -19 6 -21 26 -23 22 -2 -2 9 4 11 19 8 15 -4 17 -8 8 -14 -11 -6 -10
-13 1 -34 13 -24 15 -25 21 -8 4 10 8 32 8 50 1 49 -36 73 -113 72 -33 0 -71
-4 -82 -9z"/>
<path d="M5094 894 c-58 -21 -86 -54 -86 -101 0 -60 15 -118 32 -119 8 -1 17
-2 20 -3 3 -2 17 -4 33 -5 15 -2 35 -10 46 -20 17 -15 19 -15 32 0 11 14 10
17 -4 26 -20 11 -53 45 -73 74 -12 18 -13 28 -2 62 11 38 15 40 41 35 19 -4
32 -1 37 7 7 11 12 11 23 2 8 -7 38 -16 68 -22 30 -6 77 -16 104 -24 145 -41
171 -47 180 -45 6 1 17 0 25 -4 8 -3 35 -10 60 -17 25 -6 61 -16 80 -21 77
-23 90 -23 90 0 0 11 5 21 10 21 6 0 10 -4 10 -10 0 -5 9 -10 19 -10 25 0 38
-20 20 -31 -7 -4 -10 -11 -6 -15 4 -4 15 0 25 9 23 24 6 49 -40 59 -20 4 -83
23 -141 42 -58 19 -145 42 -193 51 -49 10 -101 24 -116 31 -34 17 -171 44
-218 43 -19 0 -53 -7 -76 -15z"/>
<path d="M7966 792 c4 -13 -3 -24 -20 -36 -14 -9 -26 -25 -26 -35 0 -22 30
-51 53 -51 9 0 17 -7 17 -16 0 -12 7 -14 29 -9 20 4 32 2 38 -8 4 -8 26 -17
48 -20 22 -2 51 -8 65 -11 l25 -7 -26 15 c-15 9 -29 23 -33 32 -5 12 -15 15
-38 12 -27 -4 -38 0 -61 25 -27 29 -28 32 -11 44 22 16 65 17 99 1 21 -9 31
-9 47 1 18 11 22 11 30 -3 6 -10 22 -15 53 -14 40 0 43 2 34 19 -5 11 -15 19
-22 19 -22 0 -96 32 -100 44 -2 6 -3 3 -2 -6 4 -21 -10 -32 -25 -23 -8 5 -7
11 1 21 19 23 1 30 -30 13 -27 -16 -88 -13 -133 5 -13 6 -15 3 -12 -12z"/>
<path d="M9340 754 c-22 -20 -40 -40 -40 -44 0 -13 41 -24 78 -21 26 1 32 -2
32 -19 0 -11 -7 -20 -15 -20 -8 0 -15 -4 -15 -8 0 -5 -21 -5 -47 -1 -27 4 -54
8 -60 8 -19 1 -16 -19 5 -26 28 -10 52 -35 52 -53 0 -13 -11 -19 -47 -23 -30
-3 -51 -1 -55 6 -5 8 -9 6 -13 -5 -8 -20 1 -38 19 -38 8 0 16 -9 19 -20 7 -25
27 -26 27 -1 0 24 22 42 38 32 9 -6 10 -15 1 -39 -6 -17 -9 -39 -7 -49 2 -10
11 11 22 47 38 137 77 186 126 160 25 -14 27 -13 33 10 6 23 25 26 33 5 5 -12
10 -12 27 -3 24 13 38 17 78 21 23 2 25 4 15 19 -7 10 -30 29 -51 43 -29 20
-40 23 -46 14 -6 -10 -11 -5 -18 14 -13 32 -27 34 -57 6 -19 -18 -25 -19 -43
-7 -12 7 -21 16 -21 20 0 19 -33 5 -70 -28z"/>
<path d="M8933 753 c-12 -2 -36 -22 -53 -43 -31 -39 -32 -60 -5 -60 9 0 11 -7
7 -22 -5 -20 -3 -20 20 7 23 26 24 31 10 41 -14 10 -13 14 4 37 18 22 23 23
44 12 13 -7 30 -11 37 -8 8 3 11 0 9 -8 -14 -43 -16 -70 -6 -64 6 4 17 2 25
-5 10 -9 15 -7 20 10 3 11 11 18 16 14 6 -3 4 -16 -6 -32 l-16 -27 20 24 c47
53 7 132 -66 130 -21 -1 -48 -4 -60 -6z"/>
<path d="M8532 689 c-18 -4 -52 -25 -77 -48 -35 -32 -49 -40 -63 -32 -9 5 -37
12 -62 16 -25 4 -52 11 -60 15 -24 12 -110 22 -110 13 0 -14 94 -71 138 -82
22 -7 44 -16 47 -21 4 -6 17 -2 32 10 35 27 49 25 70 -10 21 -37 64 -60 95
-53 28 7 88 62 88 80 0 7 5 13 10 13 6 0 10 9 10 19 0 11 5 23 11 26 18 12
-29 53 -65 57 -18 2 -47 1 -64 -3z"/>
<path d="M5896 658 c-12 -17 -13 -25 -3 -37 10 -12 8 -14 -12 -8 -16 4 -33 -1
-55 -17 -79 -59 -136 -77 -250 -77 -88 0 -187 30 -307 92 -33 17 -63 29 -66
25 -3 -3 4 -31 16 -63 l22 -57 -24 22 c-20 19 -26 20 -30 8 -7 -18 23 -46 51
-46 11 0 24 -4 27 -10 3 -5 14 -10 23 -10 10 0 22 -8 29 -19 30 -49 200 -68
328 -37 94 22 178 45 182 50 3 2 -1 13 -8 25 -19 30 -3 38 36 17 32 -18 34
-18 64 0 17 10 31 22 31 26 0 4 6 8 13 8 13 0 77 53 77 64 0 16 -54 26 -88 16
-43 -12 -55 -3 -24 17 12 9 22 19 22 24 0 18 -39 8 -54 -13z"/>
<path d="M9667 624 c5 -30 3 -36 -16 -41 -23 -6 -28 -18 -8 -27 8 -4 5 -10
-10 -22 -13 -9 -23 -22 -23 -30 0 -7 -9 -15 -19 -19 -20 -6 -25 -45 -6 -45 5
0 -2 -7 -17 -14 -35 -18 -66 -17 -98 4 -25 16 -60 11 -97 -13 -6 -4 -18 -4
-26 -1 -8 3 -18 1 -21 -5 -5 -7 -15 -7 -32 1 -20 9 -27 9 -34 -1 -6 -11 -15
-11 -51 0 l-42 14 -70 -66 c-43 -41 -67 -71 -62 -78 5 -9 10 -9 21 0 19 16 18
1 -2 -18 -14 -14 -17 -13 -38 6 -12 11 -29 21 -37 21 -9 0 -5 -7 10 -19 16
-13 22 -24 17 -36 -5 -14 -2 -16 16 -12 40 9 140 55 148 67 4 7 17 9 34 4 25
-6 27 -5 20 20 -5 22 -3 26 15 26 12 0 21 -6 20 -12 -4 -32 2 -34 64 -27 136
14 197 42 284 128 70 70 91 126 72 195 -13 46 -19 47 -12 0z"/>
<path d="M7740 591 c-19 -10 -51 -26 -70 -36 -42 -22 -112 -74 -124 -93 -4 -8
-27 -22 -50 -33 -35 -16 -37 -19 -15 -19 14 0 30 -5 36 -11 15 -15 53 6 53 29
0 12 3 13 8 5 6 -9 22 -3 60 22 28 19 54 35 57 35 3 0 5 -10 5 -23 0 -30 37
-65 81 -77 34 -10 129 -14 129 -6 0 18 -52 54 -84 59 -48 8 -56 15 -32 32 21
16 14 32 -22 47 l-27 10 29 13 c18 8 25 15 17 19 -7 4 -9 16 -6 27 8 23 0 23
-45 0z"/>
<path d="M8081 554 c-19 -14 -22 -23 -19 -65 2 -32 -1 -49 -9 -51 -9 -2 -9 -8
-3 -18 9 -12 16 -9 45 22 19 20 37 33 40 28 3 -5 1 -11 -5 -15 -17 -10 -11
-33 10 -40 11 -4 20 -15 20 -26 0 -18 29 -58 37 -51 9 7 33 0 28 -8 -3 -5 -1
-10 6 -10 7 0 22 -9 33 -19 13 -12 37 -20 66 -21 65 -3 65 -3 100 26 24 21 30
32 26 50 -7 27 8 32 39 11 13 -9 44 -13 85 -12 97 3 94 3 80 20 -10 12 -9 15
8 15 11 0 22 -5 24 -12 3 -9 20 -7 67 7 62 19 64 19 77 0 20 -27 17 -15 -10
42 l-25 50 -88 -22 c-78 -20 -88 -25 -86 -44 3 -25 -4 -27 -27 -6 -15 14 -24
14 -71 1 -30 -7 -57 -12 -61 -9 -5 2 -8 24 -8 48 0 35 -4 45 -20 49 -11 3 -29
9 -40 12 -14 4 -20 1 -20 -10 0 -9 9 -25 20 -36 24 -24 25 -36 6 -43 -8 -3
-17 -19 -21 -36 -7 -33 -50 -81 -73 -81 -12 0 -12 3 -2 15 17 21 9 27 -41 29
-26 0 -44 6 -47 15 -3 9 2 11 17 6 11 -3 21 -2 21 3 0 5 13 12 29 15 58 12 75
52 46 107 -18 35 -49 45 -89 31 -38 -15 -46 -14 -46 8 0 10 -6 24 -14 30 -18
15 -37 -8 -29 -37 4 -16 1 -22 -11 -22 -18 0 -22 35 -6 45 6 4 8 11 5 16 -9
14 -38 11 -64 -7z"/>
</g>
</svg>
